<svg xmlns="http://www.w3.org/2000/svg" xmlns:xlink="http://www.w3.org/1999/xlink" width="500" zoomAndPan="magnify" viewBox="0 0 375 374.999991" height="500" preserveAspectRatio="xMidYMid meet" version="1.0"><defs><clipPath id="id1"><path d="M 10.441406 10.441406 L 364.816406 10.441406 L 364.816406 364.816406 L 10.441406 364.816406 Z M 10.441406 10.441406 " clip-rule="nonzero"/></clipPath></defs><rect x="-37.5" width="450" fill="#ffffff" y="-37.499999" height="449.999989" fill-opacity="1"/><rect x="-37.5" width="450" fill="#ffffff" y="-37.499999" height="449.999989" fill-opacity="1"/><rect x="-37.5" width="450" fill="#ffffff" y="-37.499999" height="449.999989" fill-opacity="1"/><rect x="-37.5" width="450" fill="#ffffff" y="-37.499999" height="449.999989" fill-opacity="1"/><path fill="#ffffff" d="M 148.308594 277.15625 L 165.132812 277.15625 C 165.503906 277.15625 165.863281 277.230469 166.203125 277.371094 C 166.550781 277.511719 166.851562 277.71875 167.117188 277.980469 C 167.378906 278.246094 167.582031 278.546875 167.722656 278.894531 C 167.863281 279.238281 167.9375 279.597656 167.9375 279.96875 C 167.9375 280.339844 167.863281 280.703125 167.722656 281.042969 C 167.582031 281.390625 167.378906 281.695312 167.117188 281.960938 C 166.851562 282.222656 166.550781 282.425781 166.203125 282.566406 C 165.863281 282.710938 165.503906 282.78125 165.132812 282.78125 L 148.308594 282.78125 C 147.9375 282.78125 147.578125 282.710938 147.234375 282.566406 C 146.890625 282.425781 146.585938 282.222656 146.324219 281.960938 C 146.0625 281.695312 145.859375 281.390625 145.714844 281.042969 C 145.574219 280.703125 145.5 280.339844 145.5 279.96875 C 145.5 279.597656 145.574219 279.238281 145.714844 278.894531 C 145.859375 278.546875 146.0625 278.246094 146.324219 277.980469 C 146.585938 277.71875 146.890625 277.511719 147.234375 277.371094 C 147.578125 277.230469 147.9375 277.15625 148.308594 277.15625 Z M 176.351562 277.15625 L 193.175781 277.15625 C 193.546875 277.15625 193.90625 277.230469 194.246094 277.371094 C 194.59375 277.511719 194.894531 277.71875 195.160156 277.980469 C 195.421875 278.246094 195.625 278.546875 195.769531 278.894531 C 195.90625 279.238281 195.980469 279.597656 195.980469 279.96875 C 195.980469 280.339844 195.90625 280.703125 195.769531 281.042969 C 195.625 281.390625 195.421875 281.695312 195.160156 281.960938 C 194.894531 282.222656 194.59375 282.425781 194.246094 282.566406 C 193.90625 282.710938 193.546875 282.78125 193.175781 282.78125 L 176.351562 282.78125 C 175.976562 282.78125 175.621094 282.710938 175.277344 282.566406 C 174.929688 282.425781 174.628906 282.222656 174.367188 281.960938 C 174.105469 281.695312 173.902344 281.390625 173.757812 281.042969 C 173.617188 280.703125 173.546875 280.339844 173.546875 279.96875 C 173.546875 279.597656 173.617188 279.238281 173.757812 278.894531 C 173.902344 278.546875 174.105469 278.246094 174.367188 277.980469 C 174.628906 277.71875 174.929688 277.511719 175.277344 277.371094 C 175.621094 277.230469 175.976562 277.15625 176.351562 277.15625 Z M 204.394531 277.15625 L 221.21875 277.15625 C 221.589844 277.15625 221.949219 277.230469 222.292969 277.371094 C 222.636719 277.511719 222.9375 277.71875 223.203125 277.980469 C 223.464844 278.246094 223.667969 278.546875 223.808594 278.894531 C 223.953125 279.238281 224.023438 279.597656 224.023438 279.96875 C 224.023438 280.339844 223.953125 280.703125 223.808594 281.042969 C 223.667969 281.390625 223.464844 281.695312 223.203125 281.960938 C 222.9375 282.222656 222.636719 282.425781 222.292969 282.566406 C 221.949219 282.710938 221.589844 282.78125 221.21875 282.78125 L 204.394531 282.78125 C 204.019531 282.78125 203.660156 282.710938 203.320312 282.566406 C 202.976562 282.425781 202.671875 282.222656 202.410156 281.960938 C 202.148438 281.695312 201.941406 281.390625 201.804688 281.042969 C 201.660156 280.703125 201.589844 280.339844 201.589844 279.96875 C 201.589844 279.597656 201.660156 279.238281 201.804688 278.894531 C 201.941406 278.546875 202.148438 278.246094 202.410156 277.980469 C 202.671875 277.71875 202.976562 277.511719 203.320312 277.371094 C 203.660156 277.230469 204.019531 277.15625 204.394531 277.15625 Z M 204.394531 277.15625 " fill-opacity="1" fill-rule="nonzero"/><g clip-path="url(#id1)"><path fill="#a5a4a8" d="M 187.628906 10.441406 C 89.890625 10.441406 10.441406 89.890625 10.441406 187.628906 C 10.441406 285.371094 89.890625 364.816406 187.628906 364.816406 C 285.371094 364.816406 364.816406 285.371094 364.816406 187.628906 C 364.542969 89.890625 285.097656 10.441406 187.628906 10.441406 Z M 305.300781 235.40625 C 305.300781 252.878906 291.101562 267.351562 273.355469 267.351562 L 101.355469 267.351562 C 83.609375 267.351562 69.414062 252.878906 69.414062 235.40625 L 69.414062 113.09375 C 69.414062 112.003906 69.6875 111.183594 70.234375 110.367188 C 70.234375 110.09375 70.507812 110.09375 70.507812 109.820312 C 71.050781 109.273438 71.597656 108.726562 72.144531 108.183594 C 72.144531 108.183594 72.144531 107.910156 72.417969 107.910156 C 73.234375 107.636719 73.78125 107.363281 74.601562 107.363281 L 299.839844 107.363281 C 300.660156 107.363281 301.476562 107.636719 302.023438 107.910156 C 302.023438 107.910156 302.023438 108.183594 302.296875 108.183594 C 303.113281 108.457031 303.660156 109 303.933594 109.820312 C 304.207031 110.09375 304.207031 110.09375 304.207031 110.367188 C 304.753906 111.183594 305.027344 112.003906 305.027344 113.09375 Z M 305.300781 235.40625 " fill-opacity="1" fill-rule="nonzero"/></g><path fill="#a5a4a8" d="M 284.550781 118.558594 L 187.628906 197.457031 L 90.4375 118.558594 Z M 284.550781 118.558594 " fill-opacity="1" fill-rule="nonzero"/><path fill="#a5a4a8" d="M 294.378906 235.40625 C 294.378906 246.875 284.824219 256.429688 273.355469 256.429688 L 101.355469 256.429688 C 89.890625 256.429688 80.335938 246.875 80.335938 235.40625 L 80.335938 124.5625 L 183.808594 208.652344 C 185.71875 210.289062 188.722656 210.289062 190.632812 208.652344 L 294.378906 124.5625 Z M 294.378906 235.40625 " fill-opacity="1" fill-rule="nonzero"/></svg>