<?xml version="1.0" encoding="utf-8"?>
<!-- Generator: Adobe Illustrator 26.4.1, SVG Export Plug-In . SVG Version: 6.00 Build 0)  -->
<svg version="1.1" id="Layer_1" xmlns="http://www.w3.org/2000/svg" xmlns:xlink="http://www.w3.org/1999/xlink" x="0px" y="0px"
	  width="45px" height="45px" viewBox="0 0 45 45" style="enable-background:new 0 0 45 45;" xml:space="preserve">
<style type="text/css">
	.st0{fill:#FFFFFF;}
	.st1{clip-path:url(#SVGID_00000093153653063379025890000008102060780241369524_);}
	.st2{fill:#8C8C8C;}
</style>
<rect x="-4.5" y="-4.5" class="st0" width="54" height="54"/>
<rect x="-4.5" y="-4.5" class="st0" width="54" height="54"/>
<rect x="-4.5" y="-4.5" class="st0" width="54" height="54"/>
<rect x="-4.5" y="-4.5" class="st0" width="54" height="54"/>
<path class="st0" d="M17.8,33.3h2c0,0,0.1,0,0.1,0c0,0,0.1,0,0.1,0.1c0,0,0.1,0.1,0.1,0.1c0,0,0,0.1,0,0.1c0,0,0,0.1,0,0.1
	c0,0,0,0.1-0.1,0.1c0,0-0.1,0.1-0.1,0.1c0,0-0.1,0-0.1,0h-2c0,0-0.1,0-0.1,0c0,0-0.1,0-0.1-0.1c0,0-0.1-0.1-0.1-0.1c0,0,0-0.1,0-0.1
	c0,0,0-0.1,0-0.1c0,0,0-0.1,0.1-0.1c0,0,0.1-0.1,0.1-0.1S17.8,33.3,17.8,33.3z M21.2,33.3h2c0,0,0.1,0,0.1,0c0,0,0.1,0,0.1,0.1
	c0,0,0.1,0.1,0.1,0.1c0,0,0,0.1,0,0.1c0,0,0,0.1,0,0.1c0,0,0,0.1-0.1,0.1c0,0-0.1,0.1-0.1,0.1c0,0-0.1,0-0.1,0h-2c0,0-0.1,0-0.1,0
	c0,0-0.1,0-0.1-0.1c0,0-0.1-0.1-0.1-0.1c0,0,0-0.1,0-0.1c0,0,0-0.1,0-0.1c0,0,0-0.1,0.1-0.1c0,0,0.1-0.1,0.1-0.1
	C21.1,33.3,21.1,33.3,21.2,33.3z M24.5,33.3h2c0,0,0.1,0,0.1,0s0.1,0,0.1,0.1c0,0,0.1,0.1,0.1,0.1c0,0,0,0.1,0,0.1c0,0,0,0.1,0,0.1
	c0,0,0,0.1-0.1,0.1c0,0-0.1,0.1-0.1,0.1c0,0-0.1,0-0.1,0h-2c0,0-0.1,0-0.1,0c0,0-0.1,0-0.1-0.1c0,0-0.1-0.1-0.1-0.1c0,0,0-0.1,0-0.1
	c0,0,0-0.1,0-0.1c0,0,0-0.1,0.1-0.1c0,0,0.1-0.1,0.1-0.1C24.4,33.3,24.5,33.3,24.5,33.3z"/>
<g>
	<defs>
		<rect id="SVGID_1_" x="1.3" y="1.3" width="42.5" height="42.5"/>
	</defs>
	<clipPath id="SVGID_00000114032107124112305010000002890605448757057200_">
		<use xlink:href="#SVGID_1_"  style="overflow:visible;"/>
	</clipPath>
	<g style="clip-path:url(#SVGID_00000114032107124112305010000002890605448757057200_);">
		<path class="st2" d="M22.5,1.3c-11.7,0-21.3,9.5-21.3,21.3c0,11.7,9.5,21.3,21.3,21.3c11.7,0,21.3-9.5,21.3-21.3
			C43.7,10.8,34.2,1.3,22.5,1.3z M36.6,28.2c0,2.1-1.7,3.8-3.8,3.8H12.2c-2.1,0-3.8-1.7-3.8-3.8V13.6c0-0.1,0-0.2,0.1-0.3
			c0,0,0,0,0-0.1C8.5,13.1,8.6,13,8.7,13c0,0,0,0,0,0c0.1,0,0.2-0.1,0.3-0.1h27c0.1,0,0.2,0,0.3,0.1c0,0,0,0,0,0
			c0.1,0,0.2,0.1,0.2,0.2c0,0,0,0,0,0.1c0.1,0.1,0.1,0.2,0.1,0.3L36.6,28.2z"/>
	</g>
</g>
<path class="st2" d="M34.1,14.2l-11.6,9.5l-11.7-9.5H34.1z"/>
<path class="st2" d="M35.3,28.2c0,1.4-1.1,2.5-2.5,2.5H12.2c-1.4,0-2.5-1.1-2.5-2.5V14.9L22.1,25c0.2,0.2,0.6,0.2,0.8,0l12.4-10.1
	V28.2z"/>
</svg>
