<svg id="Ebene_2" data-name="Ebene 2" xmlns="http://www.w3.org/2000/svg" viewBox="0 0 199.9 73.6"><defs><style>.cls-1{fill:#feb571;}.cls-2{fill:#fff;}</style></defs><path class="cls-1" d="M91.7,38.2a11,11,0,0,1-4.1-.7,9.62,9.62,0,0,1-3.2-2,9.45,9.45,0,0,1-2.1-3.1,10.91,10.91,0,0,1,0-8.2,8.51,8.51,0,0,1,2.1-3.1,9.62,9.62,0,0,1,3.2-2,10.7,10.7,0,0,1,4.1-.7,18.59,18.59,0,0,1,4.2.5,10.62,10.62,0,0,1,3.3,1.8l-2.8,3.1a5.86,5.86,0,0,0-1.9-1.3,6.84,6.84,0,0,0-2.7-.5,7,7,0,0,0-2.5.5,5,5,0,0,0-1.9,1.3,6.66,6.66,0,0,0-1.2,2,6.9,6.9,0,0,0-.4,2.5,6.9,6.9,0,0,0,.4,2.5,6.66,6.66,0,0,0,1.2,2,5,5,0,0,0,1.9,1.3,6.55,6.55,0,0,0,2.5.5,8.75,8.75,0,0,0,2.4-.3,7.7,7.7,0,0,0,1.5-.6h0V30.4H92.3V26.7h7.2v9.8a17.35,17.35,0,0,1-3.8,1.4,25,25,0,0,1-4,.3" transform="translate(0 0)"/><path class="cls-1" d="M107.2,26.8H111a2.66,2.66,0,0,0,1.2-.3,1.6,1.6,0,0,0,.9-.7,2.23,2.23,0,0,0,.4-1.3,2.13,2.13,0,0,0-.3-1.2,2.7,2.7,0,0,0-.8-.7,2,2,0,0,0-1.1-.3,4.87,4.87,0,0,0-1.2-.1h-2.9Zm6.2,10.9-4-7.6h-2.2v7.6h-4V18.9h7.3a11.15,11.15,0,0,1,2.7.3,7.26,7.26,0,0,1,2.2.9,5,5,0,0,1,1.5,1.7,5.4,5.4,0,0,1,.6,2.7,5.68,5.68,0,0,1-1,3.4,4.32,4.32,0,0,1-2.9,1.7l-.3.1,4.8,8Z" transform="translate(0 0)"/><path class="cls-1" d="M127,30.4h5l-2.5-6.3Zm7.9,7.3-1.6-4h-7.5l-1.6,4h-4.4l8.1-18.8h3.3l8.2,18.8Z" transform="translate(0 0)"/><rect class="cls-1" x="141.9" y="18.9" width="4" height="18.8"/><polygon class="cls-1" points="150.6 37.7 150.6 18.9 154.5 18.9 154.5 34.1 162.3 34.1 162.3 37.7 150.6 37.7"/><path class="cls-1" d="M170.4,38.2a9.34,9.34,0,0,1-3.4-.6,8.11,8.11,0,0,1-2.8-1.7l2.8-3.1a5.09,5.09,0,0,0,1.6,1.3,5.37,5.37,0,0,0,2.1.5,4.1,4.1,0,0,0,1.1-.1,3,3,0,0,0,1-.4,2.34,2.34,0,0,0,.7-.7,1.69,1.69,0,0,0,.3-1,1.51,1.51,0,0,0-.7-1.4,8.72,8.72,0,0,0-1.7-.9c-.7-.2-1.4-.5-2.2-.7a6.67,6.67,0,0,1-2.1-.9,5.72,5.72,0,0,1-1.6-1.5,4.63,4.63,0,0,1-.6-2.5,5.26,5.26,0,0,1,.6-2.6,4.94,4.94,0,0,1,1.6-1.9,8,8,0,0,1,5-1.6,10.59,10.59,0,0,1,3.1.5,8.16,8.16,0,0,1,2.6,1.4l-2.7,3a2.84,2.84,0,0,0-1.4-.9,5.55,5.55,0,0,0-1.7-.3,3.75,3.75,0,0,0-1,.1l-.9.3a2.17,2.17,0,0,0-.7.6,1.69,1.69,0,0,0-.3,1,1.51,1.51,0,0,0,.7,1.4,5.39,5.39,0,0,0,1.7.8l2.1.6a9.49,9.49,0,0,1,2.1.9,4.89,4.89,0,0,1,1.6,1.6,4.76,4.76,0,0,1,.6,2.6,5.67,5.67,0,0,1-.6,2.7,4.94,4.94,0,0,1-1.6,1.9,6.14,6.14,0,0,1-2.3,1.1,8.56,8.56,0,0,1-3,.5" transform="translate(0 0)"/><polygon class="cls-1" points="83.9 57.8 83.8 57.7 83.7 46.5 91 46.3 91.1 48 91 48.1 85.8 48.2 85.9 51.3 90.4 51.2 90.5 52.9 90.4 53 85.9 53.1 86 57.7 83.9 57.8"/><polygon class="cls-1" points="83.8 57.7 83.7 46.5 91 46.4 91 48 85.8 48.1 85.9 51.4 90.4 51.3 90.4 52.9 85.8 53 85.9 57.7 83.9 57.7 83.8 57.7"/><polygon class="cls-1" points="83.8 57.7 83.7 46.5 83.8 46.5 91 46.4 91 46.4 91.1 48 91 48.1 85.8 48.1 85.9 51.3 90.4 51.3 90.4 51.3 90.4 52.9 90.4 53 85.9 53 85.9 57.7 85.9 57.7 83.9 57.8 83.8 57.7"/><path class="cls-1" d="M90.4,52.9H85.8l.1,4.7h-2l-.1-11.2,7.2-.1v1.6l-5.2.1v3.3h4.6Z" transform="translate(0 0)"/><path class="cls-1" d="M97.6,57.8a4.59,4.59,0,0,1-4.2-2.6,6.53,6.53,0,0,1-.6-2.9v-.6a6.53,6.53,0,0,1,.6-2.9,4.8,4.8,0,0,1,1.7-2,4.3,4.3,0,0,1,2.5-.7,4.87,4.87,0,0,1,2.5.6,4.51,4.51,0,0,1,1.7,1.9,6.53,6.53,0,0,1,.6,2.9v.6a6.53,6.53,0,0,1-.6,2.9,4.7,4.7,0,0,1-1.7,2,3.59,3.59,0,0,1-2.5.8Zm-.1-9.9a2.28,2.28,0,0,0-1.9,1,4.33,4.33,0,0,0-.7,2.7v.6a5.49,5.49,0,0,0,.7,2.8,2.32,2.32,0,0,0,1.9.9,2,2,0,0,0,1.9-1,5.22,5.22,0,0,0,.7-2.8v-.6a5.49,5.49,0,0,0-.7-2.8,3.05,3.05,0,0,0-1.9-.8Z" transform="translate(0 0)"/><path class="cls-1" d="M97.6,57.8a4.75,4.75,0,0,1-2.4-.6,4.51,4.51,0,0,1-1.7-1.9,6.39,6.39,0,0,1-.6-2.8v-.6a6.53,6.53,0,0,1,.6-2.9,4.7,4.7,0,0,1,1.7-2,4.09,4.09,0,0,1,2.5-.7h0a4.87,4.87,0,0,1,2.5.6,4.51,4.51,0,0,1,1.7,1.9,6.53,6.53,0,0,1,.6,2.9v.6a8.36,8.36,0,0,1-.5,2.9,4.31,4.31,0,0,1-1.6,1.9,9.59,9.59,0,0,1-2.8.7Zm-.1-9.9a2.06,2.06,0,0,0-1.9,1,4.46,4.46,0,0,0-.7,2.8v.6a5.22,5.22,0,0,0,.7,2.8,2.46,2.46,0,0,0,2,1,2.22,2.22,0,0,0,2-1,4.46,4.46,0,0,0,.7-2.8v-.6a5.22,5.22,0,0,0-.7-2.8,2.51,2.51,0,0,0-2.1-1Z" transform="translate(0 0)"/><path class="cls-1" d="M97.6,57.8a4.75,4.75,0,0,1-2.4-.6,4.51,4.51,0,0,1-1.7-1.9,6.53,6.53,0,0,1-.6-2.9v-.6a6.53,6.53,0,0,1,.6-2.9,4.7,4.7,0,0,1,1.7-2,4.3,4.3,0,0,1,2.5-.7h0a4.87,4.87,0,0,1,2.5.6,4.51,4.51,0,0,1,1.7,1.9,6.53,6.53,0,0,1,.6,2.9v.6a6.53,6.53,0,0,1-.6,2.9,4.7,4.7,0,0,1-1.7,2,5.59,5.59,0,0,1-2.6.7Zm-.1-9.9a2.06,2.06,0,0,0-1.9,1,4.46,4.46,0,0,0-.7,2.8v.6a5.49,5.49,0,0,0,.7,2.8,2.42,2.42,0,0,0,1.9,1,2.22,2.22,0,0,0,2-1,4.46,4.46,0,0,0,.7-2.8v-.6a5.22,5.22,0,0,0-.7-2.8,2.22,2.22,0,0,0-2-1Z" transform="translate(0 0)"/><path class="cls-1" d="M102.3,52.2a8.36,8.36,0,0,1-.5,2.9,4.31,4.31,0,0,1-1.6,1.9,4.09,4.09,0,0,1-2.5.7,5.42,5.42,0,0,1-2.5-.6,4.51,4.51,0,0,1-1.7-1.9,6.39,6.39,0,0,1-.6-2.8v-.6a6.53,6.53,0,0,1,.6-2.9A4.31,4.31,0,0,1,95.1,47a4,4,0,0,1,2.4-.7,5.42,5.42,0,0,1,2.5.6,4.51,4.51,0,0,1,1.7,1.9,6.53,6.53,0,0,1,.6,2.9Zm-2-.6a5.22,5.22,0,0,0-.7-2.8,2.33,2.33,0,0,0-2-1,2.22,2.22,0,0,0-2,1,4.65,4.65,0,0,0-.7,2.8v.6a4.45,4.45,0,0,0,.8,2.8,2.33,2.33,0,0,0,2,1,2.22,2.22,0,0,0,2-1,4.79,4.79,0,0,0,.7-2.9Z" transform="translate(0 0)"/><path class="cls-1" d="M109.5,57.7a4.45,4.45,0,0,1-3.1-1,3.7,3.7,0,0,1-1.2-2.9l-.1-7.5,2.1-.1.1.1.1,7.5a2,2,0,0,0,.6,1.6,2.07,2.07,0,0,0,1.6.5c1.5,0,2.2-.7,2.2-2.3l-.1-7.4,2.1-.1.1.1.1,7.5a3.7,3.7,0,0,1-1.2,2.9,4.86,4.86,0,0,1-3.3,1.1Z" transform="translate(0 0)"/><path class="cls-1" d="M109.5,57.6a4.45,4.45,0,0,1-3.1-1,3.56,3.56,0,0,1-1.2-2.9l-.1-7.5,2-.1.1,7.5a2.35,2.35,0,0,0,.6,1.7,2.11,2.11,0,0,0,1.6.6,2,2,0,0,0,2.2-2.3l-.1-7.4,2-.1.1,7.5a4,4,0,0,1-1.1,2.9,3.78,3.78,0,0,1-3,1.1Z" transform="translate(0 0)"/><path class="cls-1" d="M109.5,57.6a4.45,4.45,0,0,1-3.1-1,3.7,3.7,0,0,1-1.2-2.9l-.1-7.5.1-.1h2l.1.1.1,7.5a2.35,2.35,0,0,0,.6,1.7,2.11,2.11,0,0,0,1.6.6c1.5,0,2.2-.8,2.2-2.3l-.1-7.4.1-.1h2l.1.1.1,7.5a4,4,0,0,1-1.1,2.9,6.16,6.16,0,0,1-3.4.9Z" transform="translate(0 0)"/><path class="cls-1" d="M113.7,46.2l.1,7.5a3.76,3.76,0,0,1-1.1,2.8,4.5,4.5,0,0,1-3.1,1.1,4.45,4.45,0,0,1-3.1-1,3.49,3.49,0,0,1-1.2-2.8l-.1-7.5h2l.1,7.5a2.09,2.09,0,0,0,2.3,2.3,2,2,0,0,0,2.2-2.4l-.1-7.4Z" transform="translate(0 0)"/><polygon class="cls-1" points="117.2 57.4 117.2 57.4 117 46.2 119.1 46 124.2 53.8 124.1 46.1 126.1 46 126.2 46 126.4 57.2 124.3 57.4 119.2 49.7 119.4 57.3 117.3 57.5 117.2 57.4"/><polygon class="cls-1" points="117.2 57.3 117.1 46.2 119.1 46.1 124.3 54 124.1 46.1 126.1 46 126.3 57.2 124.3 57.3 119.1 49.4 119.3 57.3 117.3 57.4 117.2 57.3"/><polygon class="cls-1" points="117.2 57.3 117.1 46.2 117.2 46.1 119.1 46.1 124.2 53.8 124.1 46.1 124.2 46 126.1 46 126.2 46.1 126.3 57.2 126.3 57.3 124.3 57.3 119.2 49.6 119.3 57.3 119.2 57.4 117.3 57.4 117.2 57.3"/><path class="cls-1" d="M126.3,57.2h-2l-5.1-7.9.1,7.9h-2L117.2,46h2l5.1,7.9-.1-8h2Z" transform="translate(0 0)"/><path class="cls-1" d="M129.8,57.3h0L129.6,46c.1-.1,3.5-.2,3.5-.2a6,6,0,0,1,2.7.6,5,5,0,0,1,1.9,1.9,6.44,6.44,0,0,1,.7,2.8v.6a6.84,6.84,0,0,1-.6,2.9,3.9,3.9,0,0,1-1.9,1.9,5.07,5.07,0,0,1-2.8.7l-3.3.1Zm2.1-1.8,1.2-.1a2.87,2.87,0,0,0,2.3-.9,4.14,4.14,0,0,0,.8-2.7v-.6a4.14,4.14,0,0,0-.8-2.7,2.66,2.66,0,0,0-2.2-.9h-1.3Z" transform="translate(0 0)"/><path class="cls-1" d="M129.8,57.2,129.7,46l3.4-.1a6,6,0,0,1,2.7.6,4.14,4.14,0,0,1,1.8,1.9,6.1,6.1,0,0,1,.7,2.8v.6a6.09,6.09,0,0,1-.6,2.8,4.69,4.69,0,0,1-1.8,1.9,6,6,0,0,1-2.7.7Zm3.3-9.6h-1.4l.1,8,1.2-.1a2.64,2.64,0,0,0,2.3-1,4.14,4.14,0,0,0,.8-2.7v-.6a4.14,4.14,0,0,0-.8-2.7,2.53,2.53,0,0,0-2.2-.9Z" transform="translate(0 0)"/><path class="cls-1" d="M129.8,57.2,129.6,46l.1-.1H133a5.67,5.67,0,0,1,2.7.6,4.14,4.14,0,0,1,1.8,1.9,6.44,6.44,0,0,1,.7,2.8v.6a6.09,6.09,0,0,1-.6,2.8,4.14,4.14,0,0,1-1.8,1.9,6,6,0,0,1-2.7.7Zm2.1-1.7h1.2a2.64,2.64,0,0,0,2.3-1,4.14,4.14,0,0,0,.8-2.7v-.6a4.14,4.14,0,0,0-.8-2.7,2.79,2.79,0,0,0-2.2-.9v-.1l-.1.1h-1.3Z" transform="translate(0 0)"/><path class="cls-1" d="M129.8,57.2,129.7,46H133a6,6,0,0,1,2.7.6,3.72,3.72,0,0,1,1.8,1.9,6.1,6.1,0,0,1,.7,2.8v.6a6.09,6.09,0,0,1-.6,2.8,4.69,4.69,0,0,1-1.8,1.9,6,6,0,0,1-2.7.7Zm1.9-9.6.1,8h1.3a3,3,0,0,0,2.4-1,4.34,4.34,0,0,0,.8-2.7v-.6a4.65,4.65,0,0,0-.8-2.8,2.87,2.87,0,0,0-2.3-.9Z" transform="translate(0 0)"/><path class="cls-1" d="M139.8,57.2h0l4.1-11.4,1.9-.1,4.5,11.2-.1.1-2.1.1L147,54.4l-4.3.1-.8,2.5-2.1.2Zm3.7-4.4,3-.1-1.6-4.1Z" transform="translate(0 0)"/><path class="cls-1" d="M139.8,57.1,144,45.9l1.8-.1L150.3,57l-2.1.1-1-2.6-4.3.1-.8,2.6-2.3-.1Zm3.6-4.2,3.2-.1-1.7-4.4Z" transform="translate(0 0)"/><path class="cls-1" d="M139.8,57.1,144,45.9l1.8-.1L150.3,57l-.1.1h-2.1l-1-2.6-4.3.1-.8,2.6-2.2-.1Zm3.6-4.3h3.1l-1.6-4.3Z" transform="translate(0 0)"/><path class="cls-1" d="M147.2,54.4h-4.4l-.9,2.6h-2l4.2-11.2h1.8l4.4,11.1h-2.1Zm-3.9-1.5h3.3l-1.7-4.6Z" transform="translate(0 0)"/><polygon class="cls-1" points="154.4 57 154.3 57 154.2 47.4 150.8 47.5 150.7 45.8 150.7 45.7 159.8 45.6 159.9 47.3 159.8 47.4 156.3 47.4 156.5 56.9 154.4 57.1 154.4 57"/><polygon class="cls-1" points="154.4 56.9 154.3 47.3 150.8 47.4 150.7 45.8 159.8 45.7 159.8 47.3 156.3 47.4 156.4 56.9 154.4 57 154.4 56.9"/><polygon class="cls-1" points="154.3 56.9 154.2 47.4 150.8 47.5 150.7 47.4 150.7 45.8 150.8 45.7 159.8 45.6 159.8 45.7 159.9 47.3 159.8 47.4 156.3 47.4 156.4 56.9 156.4 57 154.4 57 154.3 56.9"/><path class="cls-1" d="M159.8,47.3h-3.5l.1,9.6h-2l-.1-9.6h-3.5V45.7l9-.1Z" transform="translate(0 0)"/><polygon class="cls-1" points="162.7 57 162.7 56.9 162.5 45.7 164.6 45.5 164.7 45.6 164.8 56.8 162.8 57 162.7 57"/><polygon class="cls-1" points="162.7 56.9 162.6 45.7 164.6 45.6 164.8 56.8 162.8 56.9 162.7 56.9"/><polygon class="cls-1" points="162.7 56.9 162.6 45.7 162.6 45.6 164.6 45.6 164.7 45.7 164.8 56.8 164.7 56.9 162.8 56.9 162.7 56.9"/><path class="cls-1" d="M164.7,56.8h-2l-.1-11.2h2Z" transform="translate(0 0)"/><path class="cls-1" d="M172.7,57a4.59,4.59,0,0,1-4.2-2.6,6.53,6.53,0,0,1-.6-2.9v-.6a6.53,6.53,0,0,1,.6-2.9,4.8,4.8,0,0,1,1.7-2,4.3,4.3,0,0,1,2.5-.7,4.87,4.87,0,0,1,2.5.6,4.51,4.51,0,0,1,1.7,1.9,6.53,6.53,0,0,1,.6,2.9v.6a6.53,6.53,0,0,1-.6,2.9,4.7,4.7,0,0,1-1.7,2,3.43,3.43,0,0,1-2.5.8Zm0-9.9a2.56,2.56,0,0,0-1.9,1,4.33,4.33,0,0,0-.7,2.7v.6a5.49,5.49,0,0,0,.7,2.8,2.32,2.32,0,0,0,1.9.9,2,2,0,0,0,1.9-1,4.5,4.5,0,0,0,.6-2.8v-.6a5.49,5.49,0,0,0-.7-2.8,3,3,0,0,0-1.8-.8Z" transform="translate(0 0)"/><path class="cls-1" d="M172.7,57a4.75,4.75,0,0,1-2.4-.6,4.51,4.51,0,0,1-1.7-1.9,6.39,6.39,0,0,1-.6-2.8v-.6a6.53,6.53,0,0,1,.6-2.9,4.7,4.7,0,0,1,1.7-2,4.09,4.09,0,0,1,2.5-.7h0a4.87,4.87,0,0,1,2.5.6A4.51,4.51,0,0,1,177,48a6.53,6.53,0,0,1,.6,2.9v.6a8.36,8.36,0,0,1-.5,2.9,4.31,4.31,0,0,1-1.6,1.9,9.59,9.59,0,0,1-2.8.7Zm0-9.9a2.06,2.06,0,0,0-1.9,1,4.65,4.65,0,0,0-.7,2.8v.6a5.22,5.22,0,0,0,.7,2.8,2.46,2.46,0,0,0,2,1,2.22,2.22,0,0,0,2-1,4.46,4.46,0,0,0,.7-2.8v-.6a5.22,5.22,0,0,0-.7-2.8,2.64,2.64,0,0,0-2.1-1Z" transform="translate(0 0)"/><path class="cls-1" d="M172.7,57a4.75,4.75,0,0,1-2.4-.6,4.51,4.51,0,0,1-1.7-1.9,6.53,6.53,0,0,1-.6-2.9V51a6.53,6.53,0,0,1,.6-2.9,4.7,4.7,0,0,1,1.7-2,4.3,4.3,0,0,1,2.5-.7h0a4.87,4.87,0,0,1,2.5.6,4.51,4.51,0,0,1,1.7,1.9,6.53,6.53,0,0,1,.6,2.9v.6a6.53,6.53,0,0,1-.6,2.9,4.7,4.7,0,0,1-1.7,2,5.59,5.59,0,0,1-2.6.7Zm0-9.9a2.06,2.06,0,0,0-1.9,1,4.46,4.46,0,0,0-.7,2.8v.6a5.49,5.49,0,0,0,.7,2.8,2.42,2.42,0,0,0,1.9,1,2.22,2.22,0,0,0,2-1,4.46,4.46,0,0,0,.7-2.8v-.6a5.22,5.22,0,0,0-.7-2.8,2.33,2.33,0,0,0-2-1Z" transform="translate(0 0)"/><path class="cls-1" d="M177.4,51.4a8.36,8.36,0,0,1-.5,2.9,4.31,4.31,0,0,1-1.6,1.9,4.09,4.09,0,0,1-2.5.7,5.42,5.42,0,0,1-2.5-.6,4.51,4.51,0,0,1-1.7-1.9,6.39,6.39,0,0,1-.6-2.8V51a6.53,6.53,0,0,1,.6-2.9,4.31,4.31,0,0,1,1.6-1.9,4,4,0,0,1,2.4-.7,5.42,5.42,0,0,1,2.5.6,4.51,4.51,0,0,1,1.7,1.9,6.53,6.53,0,0,1,.6,2.9Zm-2-.6a5.22,5.22,0,0,0-.7-2.8,2.5,2.5,0,0,0-4,0,4.65,4.65,0,0,0-.7,2.8v.6a4.45,4.45,0,0,0,.8,2.8,2.33,2.33,0,0,0,2,1,2.22,2.22,0,0,0,2-1,4.79,4.79,0,0,0,.7-2.9Z" transform="translate(0 0)"/><polygon class="cls-1" points="180.6 56.8 180.6 56.7 180.4 45.5 182.5 45.4 187.6 53.1 187.5 45.4 189.5 45.3 189.6 45.4 189.8 56.6 187.7 56.7 182.6 49 182.8 56.6 180.7 56.8 180.6 56.8"/><polygon class="cls-1" points="180.6 56.7 180.5 45.5 182.5 45.4 187.7 53.4 187.5 45.4 189.5 45.4 189.7 56.6 187.7 56.6 182.5 48.8 182.7 56.6 180.7 56.7 180.6 56.7"/><polygon class="cls-1" points="180.6 56.7 180.5 45.5 180.6 45.4 182.5 45.4 187.6 53.1 187.5 45.4 187.6 45.4 189.5 45.3 189.6 45.4 189.7 56.6 189.7 56.6 187.7 56.7 182.6 49 182.7 56.6 182.7 56.7 180.7 56.7 180.6 56.7"/><path class="cls-1" d="M189.7,56.6h-2l-5.1-7.9.1,7.9h-2l-.1-11.2h2l5.1,7.9-.1-8h2Z" transform="translate(0 0)"/><circle class="cls-1" cx="36.8" cy="36.8" r="36.8"/><path class="cls-2" d="M7.3,27.4c.5,0,2.1-.1,7.9-.1.1,0,.2.1.3.2,1.6,4.3,5.9,7.9,11.5,9.9a.28.28,0,0,1,0,.5,10.74,10.74,0,0,0-1.5.7,5.93,5.93,0,0,0-1.7,1.5,7.09,7.09,0,0,0-.7,1.6,4.12,4.12,0,0,0-.1,1.2,11.93,11.93,0,0,0,.6,3.7,22.07,22.07,0,0,0,1.2,2.7c.2.5.4,1,.5,1.2v.3a2.48,2.48,0,0,1-.9.9,9.09,9.09,0,0,1-3.6.6h0a10.88,10.88,0,0,1-3.6-.6,2.48,2.48,0,0,1-.9-.9.19.19,0,0,1,0-.3c.1-.2.3-.7.5-1.2.5-1.2.7-1.6,1.2-2.7a11,11,0,0,0,.6-3.7,4.12,4.12,0,0,0-.1-1.2,7.09,7.09,0,0,0-.7-1.6,3.94,3.94,0,0,0-1.7-1.5c-.4-.2-1.6-.7-2.1-.9a12.74,12.74,0,0,1-1.9-1.3c-.6-.5-1.7-1.6-2.2-2.1a8.92,8.92,0,0,1-2-3.7,9,9,0,0,1-.5-2.9c-.3-.2-.2-.3-.1-.3" transform="translate(0 0)"/><path class="cls-2" d="M58.4,19.2c-.9,0-5-.1-21.8-.1s-20.8.1-21.8.1c-.2,0-.3.1-.2.3a25.7,25.7,0,0,0,.8,4.8,17.66,17.66,0,0,0,3.3,6,30,30,0,0,0,3.6,3.5,20.45,20.45,0,0,0,3.1,2c.8.4,2.7,1.2,3.3,1.5a8,8,0,0,1,2.8,2.5,11.86,11.86,0,0,1,1.2,2.6,10.32,10.32,0,0,1,.1,1.9,16.63,16.63,0,0,1-1,5.9c-.7,1.9-1.1,2.5-1.9,4.5-.3.8-.7,1.6-.8,2-.1.2,0,.3,0,.5a4.1,4.1,0,0,0,1.5,1.4c1.4.8,4.4,1,5.9,1.1h0c1.5,0,4.5-.3,5.9-1.1a4.1,4.1,0,0,0,1.5-1.4.45.45,0,0,0,0-.5c-.2-.4-.5-1.2-.8-2-.8-1.9-1.2-2.6-1.9-4.5a23.52,23.52,0,0,1-1-5.9,9.76,9.76,0,0,1,.1-1.9,8.53,8.53,0,0,1,1.2-2.6,9.19,9.19,0,0,1,2.8-2.5c.6-.3,2.6-1.1,3.3-1.5a23.6,23.6,0,0,0,3.1-2,29.77,29.77,0,0,0,3.6-3.5,16.77,16.77,0,0,0,3.3-6,18.39,18.39,0,0,0,.8-4.8c.3-.2.2-.3,0-.3" transform="translate(0 0)"/><path class="cls-2" d="M66.2,27.4c-.5,0-2.1-.1-7.9-.1-.1,0-.2.1-.3.2-1.6,4.3-5.9,7.9-11.5,9.9-.2.1-.3.4,0,.5a10.74,10.74,0,0,1,1.5.7,5.93,5.93,0,0,1,1.7,1.5,7.09,7.09,0,0,1,.7,1.6,4.12,4.12,0,0,1,.1,1.2,11.93,11.93,0,0,1-.6,3.7,22.07,22.07,0,0,1-1.2,2.7c-.2.5-.4,1-.5,1.2v.3a2.48,2.48,0,0,0,.9.9,9.09,9.09,0,0,0,3.6.6h0a10.88,10.88,0,0,0,3.6-.6,2.48,2.48,0,0,0,.9-.9.19.19,0,0,0,0-.3c-.1-.2-.3-.7-.5-1.2-.5-1.2-.7-1.6-1.2-2.7a11,11,0,0,1-.6-3.7,4.12,4.12,0,0,1,.1-1.2,7.09,7.09,0,0,1,.7-1.6,3.94,3.94,0,0,1,1.7-1.5c.4-.2,1.6-.7,2.1-.9a12.74,12.74,0,0,0,1.9-1.3c.6-.5,1.7-1.6,2.2-2.1a8.92,8.92,0,0,0,2-3.7,9,9,0,0,0,.5-2.9c.3-.2.2-.3.1-.3" transform="translate(0 0)"/><path class="cls-1" d="M195.7,45.8h-1.2v3.3H194V45.8h-1.2v-.4h2.9Z" transform="translate(0 0)"/><path class="cls-1" d="M196.9,45.4l1.2,3,1.2-3h.6v3.7h-.5V46l-1.2,3H198l-1.2-3v3.1h-.5V45.4Z" transform="translate(0 0)"/></svg>
