<svg xmlns="http://www.w3.org/2000/svg" width="3.51in" height="1.24in" viewBox="0 0 252.71 89.58"><title>ObjectComputingLogo_version1_color</title><path d="M77.56,114.74a1,1,0,0,1-1.44,1l-46-13.42a2.1,2.1,0,0,1-1.45-1.87V51.72a1.06,1.06,0,0,1,1.45-1l46,13.42A2.1,2.1,0,0,1,77.56,66v48.75Zm-15-39.35a2.13,2.13,0,0,0-1.44-1.89L43.43,68.06a1,1,0,0,0-1.44,1V90a2.13,2.13,0,0,0,1.44,1.89l17.71,5.44a1,1,0,0,0,1.44-1v-21Z" transform="translate(-28.66 -26.25)" fill="#285ba7"/><path d="M102.62,36.14l11.2,3.11c.81.24.84.82.07,1.3L81.18,61.14a4.09,4.09,0,0,1-2.89.44L31.08,47.88c-.81-.23-.85-.82-.07-1.3l34.6-19.79a4.17,4.17,0,0,1,2.89-.45l8.06,2.41.65.2c1.08.27,1.24.68,1.25.91a1.09,1.09,0,0,1-.46.79L57.34,43.07c-.78.48-.76,1.07,0,1.31l18,5.25a4,4,0,0,0,2.86-.43L98.49,37.06s1.07-.52,1.91-.87a3.11,3.11,0,0,1,2.22,0" transform="translate(-28.66 -26.25)" fill="#68c9d2"/><path d="M105.08,72.09a2.64,2.64,0,0,1,1.47-2.39l9.54-6.07a1.2,1.2,0,0,1,1.86,1.1V91.44c-.06,1.06,0,1.73-1.67,2.88l-10,7.22c-.81.51-1.26.07-1.26-.74l0-28.71Z" transform="translate(-28.66 -26.25)" fill="#fab076"/><path d="M104.64,52a3.27,3.27,0,0,1,1.47-2.4l10.45-6.85c.8-.51,1.4.06,1.4.87l0,13a2.79,2.79,0,0,1-1.36,2.27L106,65.55c-.8.51-1.4.19-1.4-.62V52Z" transform="translate(-28.66 -26.25)" fill="#fab076"/><path d="M141.42,60.24a7.27,7.27,0,0,1,.52-2.82,6.16,6.16,0,0,1,1.46-2.16,6.47,6.47,0,0,1,2.21-1.36,8.44,8.44,0,0,1,5.61,0,6.42,6.42,0,0,1,2.22,1.36,6.3,6.3,0,0,1,1.46,2.16,7.91,7.91,0,0,1,0,5.64,6.23,6.23,0,0,1-3.68,3.52,8.44,8.44,0,0,1-5.61,0,6.34,6.34,0,0,1-2.21-1.37,6.12,6.12,0,0,1-1.46-2.15A7.27,7.27,0,0,1,141.42,60.24Zm3,0a4.78,4.78,0,0,0,.28,1.68,3.91,3.91,0,0,0,.82,1.32,3.68,3.68,0,0,0,1.27.87,4.6,4.6,0,0,0,3.32,0,3.78,3.78,0,0,0,1.27-.87,3.91,3.91,0,0,0,.82-1.32,5.15,5.15,0,0,0,0-3.35,3.86,3.86,0,0,0-.82-1.33,3.78,3.78,0,0,0-1.27-.87,4.6,4.6,0,0,0-3.32,0,3.68,3.68,0,0,0-1.27.87,3.86,3.86,0,0,0-.82,1.33A4.76,4.76,0,0,0,144.39,60.24Z" transform="translate(-28.66 -26.25)" fill="#7b7d80"/><path d="M160.66,53.75h4.84a12.25,12.25,0,0,1,1.7.12,4.81,4.81,0,0,1,1.53.47,2.86,2.86,0,0,1,1.09,1,3,3,0,0,1,.43,1.7,2.76,2.76,0,0,1-.62,1.83,3.36,3.36,0,0,1-1.62,1v0a3.9,3.9,0,0,1,1.17.35,3.56,3.56,0,0,1,.9.68,3.12,3.12,0,0,1,.58,1,3.52,3.52,0,0,1,.19,1.18,3.15,3.15,0,0,1-.43,1.71,3.55,3.55,0,0,1-1.14,1.11,5,5,0,0,1-1.57.6,7.9,7.9,0,0,1-1.73.19h-5.32Zm2.87,5.19h2.06a2.82,2.82,0,0,0,.65-.08,1.57,1.57,0,0,0,.58-.23,1.15,1.15,0,0,0,.41-.44,1.29,1.29,0,0,0,.16-.66,1.26,1.26,0,0,0-.17-.67,1.29,1.29,0,0,0-.45-.42,2.74,2.74,0,0,0-.63-.21,4,4,0,0,0-.67-.06h-1.94Zm0,5.37h2.56a3.91,3.91,0,0,0,.67-.07,1.85,1.85,0,0,0,.61-.26,1.48,1.48,0,0,0,.45-.48,1.31,1.31,0,0,0,.17-.71,1.21,1.21,0,0,0-.22-.74,1.57,1.57,0,0,0-.58-.44,3.77,3.77,0,0,0-.75-.2,7.07,7.07,0,0,0-.76,0h-2.15Z" transform="translate(-28.66 -26.25)" fill="#7b7d80"/><path d="M182.55,62.38a9.19,9.19,0,0,1-.16,1.75,3.72,3.72,0,0,1-.6,1.49,3,3,0,0,1-1.25,1,4.79,4.79,0,0,1-2.13.4,4.56,4.56,0,0,1-2.61-.73A3.53,3.53,0,0,1,174.42,64l2.62-.65a1.26,1.26,0,0,0,.44.81,1.25,1.25,0,0,0,.85.33,1.08,1.08,0,0,0,.77-.25,1.43,1.43,0,0,0,.41-.61,3.34,3.34,0,0,0,.15-.8c0-.29,0-.55,0-.8V53.75h2.86Z" transform="translate(-28.66 -26.25)" fill="#7b7d80"/><path d="M188.41,53.75h8.82v2.64h-6v2.42h5.63v2.64h-5.63v2.64h6.29v2.64h-9.15Z" transform="translate(-28.66 -26.25)" fill="#7b7d80"/><path d="M211.64,57.12a2.77,2.77,0,0,0-1-.78,3.33,3.33,0,0,0-1.42-.28,3.57,3.57,0,0,0-1.5.31,3.62,3.62,0,0,0-1.18.87,4,4,0,0,0-.79,1.33,5,5,0,0,0,0,3.35,4.13,4.13,0,0,0,.77,1.32,3.58,3.58,0,0,0,1.17.87,3.3,3.3,0,0,0,1.44.31,3.18,3.18,0,0,0,1.56-.37,3,3,0,0,0,1.11-1l2.38,1.77a4.93,4.93,0,0,1-2.08,1.71,6.6,6.6,0,0,1-2.6.55,7.93,7.93,0,0,1-2.81-.48,6.29,6.29,0,0,1-2.22-1.37A6.12,6.12,0,0,1,203,63.06a7.91,7.91,0,0,1,0-5.64,6.16,6.16,0,0,1,1.46-2.16,6.42,6.42,0,0,1,2.22-1.36,7.93,7.93,0,0,1,2.81-.48,7.65,7.65,0,0,1,1.14.1,6,6,0,0,1,1.17.32,5.38,5.38,0,0,1,1.11.59,4.08,4.08,0,0,1,1,.9Z" transform="translate(-28.66 -26.25)" fill="#7b7d80"/><path d="M221.52,56.28h-3.71V53.75h10.27v2.53h-3.7V66.73h-2.86Z" transform="translate(-28.66 -26.25)" fill="#7b7d80"/><path d="M150.6,79.53a2.77,2.77,0,0,0-1-.78,3.33,3.33,0,0,0-1.42-.28,3.71,3.71,0,0,0-1.49.31,3.56,3.56,0,0,0-1.19.87,4.12,4.12,0,0,0-.79,1.33,5.15,5.15,0,0,0,0,3.35,4.12,4.12,0,0,0,.78,1.32,3.65,3.65,0,0,0,1.16.87,3.36,3.36,0,0,0,1.44.31,3.16,3.16,0,0,0,1.56-.37,3,3,0,0,0,1.12-1l2.38,1.78a4.94,4.94,0,0,1-2.09,1.7,6.39,6.39,0,0,1-2.6.55,8,8,0,0,1-2.81-.48,6.2,6.2,0,0,1-2.21-1.37,5.94,5.94,0,0,1-1.46-2.15,7.91,7.91,0,0,1,0-5.64,6.25,6.25,0,0,1,1.46-2.16,6.47,6.47,0,0,1,2.21-1.36,8,8,0,0,1,2.81-.48,7.53,7.53,0,0,1,1.14.1,7.11,7.11,0,0,1,1.18.32,5.94,5.94,0,0,1,1.11.59,4.48,4.48,0,0,1,1,.9Z" transform="translate(-28.66 -26.25)" fill="#7b7d80"/><path d="M157.27,82.65a7.46,7.46,0,0,1,.52-2.82,6.39,6.39,0,0,1,1.46-2.16,6.51,6.51,0,0,1,2.22-1.36,8.44,8.44,0,0,1,5.61,0,6.61,6.61,0,0,1,2.22,1.36,6.37,6.37,0,0,1,1.45,2.16,7.91,7.91,0,0,1,0,5.64,6,6,0,0,1-1.45,2.15A6.33,6.33,0,0,1,167.08,89a8.44,8.44,0,0,1-5.61,0,6.24,6.24,0,0,1-2.22-1.37,6.07,6.07,0,0,1-1.46-2.15A7.46,7.46,0,0,1,157.27,82.65Zm3,0a4.78,4.78,0,0,0,.29,1.68,3.71,3.71,0,0,0,.81,1.32,3.88,3.88,0,0,0,1.27.87,4.6,4.6,0,0,0,3.32,0A3.68,3.68,0,0,0,168,84.33,5,5,0,0,0,168,81a4,4,0,0,0-.81-1.33,3.82,3.82,0,0,0-1.28-.87,4.6,4.6,0,0,0-3.32,0,3.88,3.88,0,0,0-1.27.87,3.84,3.84,0,0,0-.81,1.33A4.8,4.8,0,0,0,160.24,82.65Z" transform="translate(-28.66 -26.25)" fill="#7b7d80"/><path d="M176.52,76.16h4.33l3,8.47h0l3-8.47h4.3v13h-2.86v-10h0l-3.41,10h-2.19l-3.28-10h0v10h-2.86Z" transform="translate(-28.66 -26.25)" fill="#7b7d80"/><path d="M197.12,76.16h4.82a9.83,9.83,0,0,1,1.91.18,4.28,4.28,0,0,1,1.56.64,3.12,3.12,0,0,1,1.06,1.21,4,4,0,0,1,.4,1.91A4.48,4.48,0,0,1,206.5,82a3.13,3.13,0,0,1-1,1.23,4.12,4.12,0,0,1-1.52.65,8.74,8.74,0,0,1-1.9.19H200v5.06h-2.86Zm2.86,5.5h1.9a3.67,3.67,0,0,0,.75-.07,1.9,1.9,0,0,0,.64-.25,1.33,1.33,0,0,0,.46-.48,1.55,1.55,0,0,0,.17-.76,1.28,1.28,0,0,0-.23-.79,1.52,1.52,0,0,0-.59-.47,2.42,2.42,0,0,0-.79-.21c-.3,0-.58,0-.84,0H200Z" transform="translate(-28.66 -26.25)" fill="#7b7d80"/><path d="M222.91,84.13a6.3,6.3,0,0,1-.35,2.13,4.78,4.78,0,0,1-1,1.69,4.84,4.84,0,0,1-1.72,1.12,6.38,6.38,0,0,1-2.36.4,6.51,6.51,0,0,1-2.39-.4A4.89,4.89,0,0,1,213.35,88a4.5,4.5,0,0,1-1-1.69,6.06,6.06,0,0,1-.35-2.13v-8h2.86V84a3.08,3.08,0,0,0,.19,1.11,2.59,2.59,0,0,0,.54.89,2.46,2.46,0,0,0,.83.59,2.67,2.67,0,0,0,1.06.21,2.5,2.5,0,0,0,1.87-.8,2.76,2.76,0,0,0,.54-.89,3.31,3.31,0,0,0,.19-1.11V76.16h2.86Z" transform="translate(-28.66 -26.25)" fill="#7b7d80"/><path d="M231.36,78.69h-3.71V76.16h10.27v2.53h-3.7V89.14h-2.86Z" transform="translate(-28.66 -26.25)" fill="#7b7d80"/><path d="M242.63,76.16h2.86v13h-2.86Z" transform="translate(-28.66 -26.25)" fill="#7b7d80"/><path d="M251.39,76.16h3.89l5.51,9h0v-9h2.86v13H260l-5.66-9.24h0v9.24h-2.86Z" transform="translate(-28.66 -26.25)" fill="#7b7d80"/><path d="M281.38,88.23a10.82,10.82,0,0,1-2.64,1,13.81,13.81,0,0,1-2.81.29,7.91,7.91,0,0,1-2.8-.48,6.2,6.2,0,0,1-2.21-1.37,5.82,5.82,0,0,1-1.46-2.15,7.77,7.77,0,0,1,0-5.64,6.12,6.12,0,0,1,1.46-2.16,6.47,6.47,0,0,1,2.21-1.36,7.91,7.91,0,0,1,2.8-.48,10.38,10.38,0,0,1,2.87.38,5.68,5.68,0,0,1,2.31,1.29l-2,2.2a4.09,4.09,0,0,0-1.32-.92,4.87,4.87,0,0,0-1.84-.31,4.33,4.33,0,0,0-1.65.31,3.67,3.67,0,0,0-2.09,2.2,5.15,5.15,0,0,0,0,3.35,3.71,3.71,0,0,0,.81,1.32,3.82,3.82,0,0,0,1.28.87,4.15,4.15,0,0,0,1.65.31,5.49,5.49,0,0,0,1.62-.21,5.89,5.89,0,0,0,1.08-.43V84.08H276.3V81.44h5.08Z" transform="translate(-28.66 -26.25)" fill="#7b7d80"/></svg>