<?xml version="1.0" encoding="utf-8"?>
<!-- Generator: Adobe Illustrator 25.2.2, SVG Export Plug-In . SVG Version: 6.00 Build 0)  -->
<svg version="1.1" id="Ebene_1" xmlns="http://www.w3.org/2000/svg" xmlns:xlink="http://www.w3.org/1999/xlink" x="0px" y="0px"
     viewBox="0 0 318 75.2" style="enable-background:new 0 0 318 75.2;" xml:space="preserve">
<style type="text/css">
    .st0{fill:#2D519D;}
    .st1{fill:#77C7D3;}
    .st2{fill:#F7B376;}
    .st3{fill:#828082;}
</style>
<g>
    <g>
        <path class="st0" d="M41,74.2c0,0.7-0.5,1.1-1.2,0.9L1.2,63.8C0.5,63.6,0,62.9,0,62.3V21.4c0-0.7,0.5-1.1,1.2-0.9l38.6,11.3
            c0.7,0.2,1.2,0.9,1.2,1.6V74.2L41,74.2z M28.5,41.2c0-0.7-0.5-1.4-1.2-1.6l-14.9-4.6c-0.7-0.2-1.2,0.2-1.2,0.8v17.6
            c0,0.7,0.5,1.4,1.2,1.6l14.9,4.6c0.7,0.2,1.2-0.2,1.2-0.8V41.2L28.5,41.2z"/>
        <path class="st1" d="M62,8.3l9.4,2.6c0.7,0.2,0.7,0.7,0.1,1.1L44.1,29.3c-0.6,0.4-1.7,0.6-2.4,0.4L2,18.2C1.3,18,1.3,17.5,2,17.1
            L31,0.5c0.7-0.4,1.7-0.6,2.4-0.4l6.8,2l0.5,0.2c0.9,0.2,1,0.6,1,0.8c0,0.4-0.4,0.7-0.4,0.7L24.1,14.1c-0.6,0.4-0.6,0.9,0,1.1
            l15.1,4.4c0.7,0.2,1.7,0,2.4-0.4l17-10.2c0,0,0.9-0.4,1.6-0.7C61.2,7.9,62,8.3,62,8.3"/>
    </g>
    <g>
        <path class="st2" d="M64.1,38.5c0-1.1,0.6-1.6,1.2-2l8-5.1c0.7-0.4,1.6,0,1.6,0.9l0,22.4c-0.1,0.9,0,1.4-1.4,2.4l-8.4,6.1
            c-0.7,0.4-1.1,0.1-1.1-0.6L64.1,38.5L64.1,38.5z"/>
        <path class="st2" d="M63.7,21.6c0-0.7,0.6-1.6,1.2-2l8.8-5.7c0.7-0.4,1.2,0,1.2,0.7l0,10.9c-0.1,0.8-0.4,1.4-1.1,1.9L64.9,33
            c-0.7,0.4-1.2,0.2-1.2-0.5L63.7,21.6L63.7,21.6z"/>
    </g>
</g>
<g>
    <g>
        <path class="st3" d="M90.2,27.1c0-1,0.2-1.9,0.5-2.7c0.3-0.8,0.8-1.5,1.4-2.1c0.6-0.6,1.3-1,2.1-1.3c0.8-0.3,1.7-0.5,2.7-0.5
            c1,0,1.9,0.1,2.7,0.5c0.8,0.3,1.5,0.7,2.1,1.3c0.6,0.6,1.1,1.3,1.4,2.1c0.3,0.8,0.5,1.7,0.5,2.7c0,1-0.2,1.9-0.5,2.7
            c-0.3,0.8-0.8,1.5-1.4,2.1c-0.6,0.6-1.3,1-2.1,1.3c-0.8,0.3-1.7,0.5-2.7,0.5c-1,0-1.9-0.2-2.7-0.5c-0.8-0.3-1.5-0.7-2.1-1.3
            c-0.6-0.6-1.1-1.3-1.4-2.1C90.3,29,90.2,28.1,90.2,27.1z M93,27.1c0,0.6,0.1,1.1,0.3,1.6c0.2,0.5,0.4,0.9,0.8,1.3
            c0.3,0.4,0.7,0.6,1.2,0.8c0.5,0.2,1,0.3,1.6,0.3c0.6,0,1.1-0.1,1.6-0.3c0.5-0.2,0.9-0.5,1.2-0.8c0.3-0.4,0.6-0.8,0.8-1.3
            c0.2-0.5,0.3-1,0.3-1.6c0-0.6-0.1-1.1-0.3-1.6c-0.2-0.5-0.4-0.9-0.8-1.3c-0.3-0.4-0.8-0.6-1.2-0.8c-0.5-0.2-1-0.3-1.6-0.3
            c-0.6,0-1.1,0.1-1.6,0.3c-0.5,0.2-0.9,0.5-1.2,0.8c-0.3,0.4-0.6,0.8-0.8,1.3C93.1,26,93,26.5,93,27.1z"/>
        <path class="st3" d="M108.7,20.9h4.7c0.5,0,1.1,0,1.6,0.1c0.6,0.1,1,0.2,1.5,0.5c0.4,0.2,0.8,0.6,1.1,1c0.3,0.4,0.4,1,0.4,1.6
            c0,0.7-0.2,1.3-0.6,1.8c-0.4,0.5-0.9,0.8-1.6,1v0c0.4,0.1,0.8,0.2,1.1,0.3c0.3,0.2,0.6,0.4,0.9,0.7c0.2,0.3,0.4,0.6,0.6,0.9
            c0.1,0.4,0.2,0.7,0.2,1.1c0,0.7-0.1,1.2-0.4,1.6c-0.3,0.4-0.6,0.8-1.1,1.1c-0.4,0.3-0.9,0.5-1.5,0.6c-0.6,0.1-1.1,0.2-1.7,0.2
            h-5.1V20.9z M111.4,25.8h2c0.2,0,0.4,0,0.6-0.1c0.2,0,0.4-0.1,0.6-0.2c0.2-0.1,0.3-0.2,0.4-0.4c0.1-0.2,0.2-0.4,0.2-0.6
            c0-0.3-0.1-0.5-0.2-0.6c-0.1-0.2-0.3-0.3-0.4-0.4c-0.2-0.1-0.4-0.2-0.6-0.2c-0.2,0-0.4-0.1-0.7-0.1h-1.9V25.8z M111.4,31h2.5
            c0.2,0,0.4,0,0.6-0.1c0.2,0,0.4-0.1,0.6-0.2c0.2-0.1,0.3-0.3,0.4-0.5c0.1-0.2,0.2-0.4,0.2-0.7c0-0.3-0.1-0.5-0.2-0.7
            c-0.2-0.2-0.3-0.3-0.6-0.4c-0.2-0.1-0.5-0.2-0.7-0.2c-0.3,0-0.5-0.1-0.7-0.1h-2.1V31z"/>
        <path class="st3" d="M129.7,29.2c0,0.6-0.1,1.1-0.2,1.7c-0.1,0.5-0.3,1-0.6,1.4c-0.3,0.4-0.7,0.8-1.2,1c-0.5,0.3-1.2,0.4-2.1,0.4
            c-1,0-1.8-0.2-2.5-0.7c-0.7-0.5-1.1-1.2-1.3-2.2l2.5-0.6c0,0.3,0.2,0.6,0.4,0.8c0.2,0.2,0.5,0.3,0.8,0.3c0.3,0,0.6-0.1,0.7-0.2
            c0.2-0.2,0.3-0.4,0.4-0.6c0.1-0.2,0.1-0.5,0.2-0.8c0-0.3,0-0.5,0-0.8v-8h2.8V29.2z"/>
        <path class="st3" d="M135.3,20.9h8.5v2.5h-5.7v2.3h5.4v2.5h-5.4v2.5h6v2.5h-8.8V20.9z"/>
        <path class="st3" d="M157.7,24.1c-0.3-0.3-0.6-0.6-1-0.8c-0.4-0.2-0.9-0.3-1.4-0.3c-0.5,0-1,0.1-1.4,0.3c-0.4,0.2-0.8,0.5-1.1,0.8
            c-0.3,0.4-0.6,0.8-0.8,1.3c-0.2,0.5-0.3,1-0.3,1.6c0,0.6,0.1,1.1,0.3,1.6c0.2,0.5,0.4,0.9,0.7,1.3c0.3,0.4,0.7,0.6,1.1,0.8
            c0.4,0.2,0.9,0.3,1.4,0.3c0.6,0,1.1-0.1,1.5-0.4c0.4-0.2,0.8-0.6,1.1-1l2.3,1.7c-0.5,0.7-1.2,1.3-2,1.6c-0.8,0.4-1.6,0.5-2.5,0.5
            c-1,0-1.9-0.2-2.7-0.5c-0.8-0.3-1.5-0.7-2.1-1.3c-0.6-0.6-1.1-1.3-1.4-2.1c-0.3-0.8-0.5-1.7-0.5-2.7c0-1,0.2-1.9,0.5-2.7
            c0.3-0.8,0.8-1.5,1.4-2.1c0.6-0.6,1.3-1,2.1-1.3c0.8-0.3,1.7-0.5,2.7-0.5c0.4,0,0.7,0,1.1,0.1c0.4,0.1,0.8,0.2,1.1,0.3
            c0.4,0.1,0.7,0.3,1.1,0.6c0.3,0.2,0.6,0.5,0.9,0.9L157.7,24.1z"/>
        <path class="st3" d="M167.1,23.3h-3.6v-2.4h9.9v2.4h-3.6v10h-2.7V23.3z"/>
    </g>
    <g>
        <path class="st3" d="M192.3,24.1c-0.3-0.3-0.6-0.6-1-0.8c-0.4-0.2-0.8-0.3-1.4-0.3c-0.5,0-1,0.1-1.4,0.3c-0.4,0.2-0.8,0.5-1.1,0.8
            c-0.3,0.4-0.6,0.8-0.8,1.3c-0.2,0.5-0.3,1-0.3,1.6c0,0.6,0.1,1.1,0.3,1.6c0.2,0.5,0.4,0.9,0.8,1.3c0.3,0.4,0.7,0.6,1.1,0.8
            c0.4,0.2,0.9,0.3,1.4,0.3c0.6,0,1.1-0.1,1.5-0.3c0.4-0.2,0.8-0.6,1.1-1l2.3,1.7c-0.5,0.7-1.2,1.3-2,1.6c-0.8,0.4-1.6,0.5-2.5,0.5
            c-1,0-1.9-0.2-2.7-0.5c-0.8-0.3-1.5-0.7-2.1-1.3c-0.6-0.6-1.1-1.3-1.4-2.1c-0.3-0.8-0.5-1.7-0.5-2.7c0-1,0.2-1.9,0.5-2.7
            c0.3-0.8,0.8-1.5,1.4-2.1c0.6-0.6,1.3-1,2.1-1.3c0.8-0.3,1.7-0.5,2.7-0.5c0.4,0,0.7,0,1.1,0.1c0.4,0.1,0.8,0.2,1.1,0.3
            c0.4,0.1,0.7,0.3,1.1,0.6c0.3,0.2,0.6,0.5,0.9,0.9L192.3,24.1z"/>
        <path class="st3" d="M198.7,27.1c0-1,0.2-1.9,0.5-2.7c0.3-0.8,0.8-1.5,1.4-2.1c0.6-0.6,1.3-1,2.1-1.3c0.8-0.3,1.7-0.5,2.7-0.5
            c1,0,1.9,0.2,2.7,0.5c0.8,0.3,1.5,0.7,2.1,1.3c0.6,0.6,1.1,1.3,1.4,2.1c0.3,0.8,0.5,1.7,0.5,2.7c0,1-0.2,1.9-0.5,2.7
            c-0.3,0.8-0.8,1.5-1.4,2.1c-0.6,0.6-1.3,1-2.1,1.3c-0.8,0.3-1.7,0.5-2.7,0.5c-1,0-1.9-0.2-2.7-0.5c-0.8-0.3-1.5-0.7-2.1-1.3
            c-0.6-0.6-1.1-1.3-1.4-2.1C198.9,29,198.7,28.1,198.7,27.1z M201.6,27.1c0,0.6,0.1,1.1,0.3,1.6c0.2,0.5,0.4,0.9,0.8,1.3
            c0.3,0.4,0.7,0.6,1.2,0.8c0.5,0.2,1,0.3,1.6,0.3c0.6,0,1.1-0.1,1.6-0.3c0.5-0.2,0.9-0.5,1.2-0.8c0.3-0.4,0.6-0.8,0.8-1.3
            c0.2-0.5,0.3-1,0.3-1.6c0-0.6-0.1-1.1-0.3-1.6c-0.2-0.5-0.4-0.9-0.8-1.3c-0.3-0.4-0.7-0.6-1.2-0.8c-0.5-0.2-1-0.3-1.6-0.3
            c-0.6,0-1.1,0.1-1.6,0.3c-0.5,0.2-0.9,0.5-1.2,0.8c-0.3,0.4-0.6,0.8-0.8,1.3C201.7,26,201.6,26.5,201.6,27.1z"/>
        <path class="st3" d="M217.2,20.9h4.2l2.9,8.1h0l2.9-8.1h4.1v12.5h-2.7v-9.6h0l-3.3,9.6h-2.1l-3.2-9.6h0v9.6h-2.7V20.9z"/>
        <path class="st3" d="M237,20.9h4.6c0.6,0,1.3,0.1,1.8,0.2c0.6,0.1,1.1,0.3,1.5,0.6c0.4,0.3,0.8,0.7,1,1.2c0.3,0.5,0.4,1.1,0.4,1.8
            c0,0.7-0.1,1.3-0.4,1.8c-0.2,0.5-0.6,0.9-1,1.2c-0.4,0.3-0.9,0.5-1.5,0.6c-0.6,0.1-1.2,0.2-1.8,0.2h-2v4.9H237V20.9z M239.8,26.1
            h1.8c0.2,0,0.5,0,0.7-0.1c0.2,0,0.4-0.1,0.6-0.2c0.2-0.1,0.3-0.3,0.4-0.5c0.1-0.2,0.2-0.4,0.2-0.7c0-0.3-0.1-0.6-0.2-0.8
            c-0.1-0.2-0.3-0.3-0.6-0.4c-0.2-0.1-0.5-0.2-0.8-0.2c-0.3,0-0.6,0-0.8,0h-1.4V26.1z"/>
        <path class="st3" d="M261.8,28.5c0,0.7-0.1,1.4-0.3,2c-0.2,0.6-0.6,1.2-1,1.6c-0.4,0.5-1,0.8-1.6,1.1c-0.7,0.3-1.4,0.4-2.3,0.4
            c-0.9,0-1.6-0.1-2.3-0.4c-0.7-0.3-1.2-0.6-1.6-1.1c-0.4-0.5-0.8-1-1-1.6c-0.2-0.6-0.3-1.3-0.3-2v-7.7h2.7v7.6
            c0,0.4,0.1,0.7,0.2,1.1c0.1,0.3,0.3,0.6,0.5,0.9c0.2,0.2,0.5,0.4,0.8,0.6c0.3,0.1,0.6,0.2,1,0.2c0.4,0,0.7-0.1,1-0.2
            c0.3-0.1,0.6-0.3,0.8-0.6c0.2-0.2,0.4-0.5,0.5-0.9c0.1-0.3,0.2-0.7,0.2-1.1v-7.6h2.7V28.5z"/>
        <path class="st3" d="M269.9,23.3h-3.6v-2.4h9.9v2.4h-3.6v10h-2.7V23.3z"/>
        <path class="st3" d="M280.8,20.9h2.7v12.5h-2.7V20.9z"/>
        <path class="st3" d="M289.2,20.9h3.7l5.3,8.7h0v-8.7h2.7v12.5h-3.6l-5.4-8.9h0v8.9h-2.7V20.9z"/>
        <path class="st3" d="M318,32.5c-0.8,0.4-1.7,0.7-2.5,0.9c-0.9,0.2-1.8,0.3-2.7,0.3c-1,0-1.9-0.2-2.7-0.5c-0.8-0.3-1.5-0.7-2.1-1.3
            c-0.6-0.6-1.1-1.3-1.4-2.1c-0.3-0.8-0.5-1.7-0.5-2.7c0-1,0.2-1.9,0.5-2.7c0.3-0.8,0.8-1.5,1.4-2.1c0.6-0.6,1.3-1,2.1-1.3
            c0.8-0.3,1.7-0.5,2.7-0.5c1,0,1.9,0.1,2.8,0.4c0.8,0.2,1.6,0.7,2.2,1.2l-1.9,2.1c-0.4-0.4-0.8-0.7-1.3-0.9
            c-0.5-0.2-1.1-0.3-1.8-0.3c-0.6,0-1.1,0.1-1.6,0.3c-0.5,0.2-0.9,0.5-1.2,0.8c-0.3,0.4-0.6,0.8-0.8,1.3c-0.2,0.5-0.3,1-0.3,1.6
            c0,0.6,0.1,1.1,0.3,1.6c0.2,0.5,0.4,0.9,0.8,1.3c0.3,0.4,0.8,0.6,1.2,0.8c0.5,0.2,1,0.3,1.6,0.3c0.6,0,1.1-0.1,1.5-0.2
            c0.4-0.1,0.8-0.3,1-0.4v-2h-2.2v-2.5h4.9V32.5z"/>
    </g>
</g>
<g>
    <path class="st3" d="M91.5,44.3h0.8v2.9H96v-2.9h0.8v6.9H96V48h-3.7v3.2h-0.8V44.3z"/>
    <path class="st3" d="M102.2,51.5c-0.5,0-1-0.1-1.5-0.3c-0.4-0.2-0.8-0.4-1.1-0.8c-0.3-0.3-0.6-0.7-0.8-1.2
        c-0.2-0.4-0.3-0.9-0.3-1.5c0-0.5,0.1-1,0.3-1.5c0.2-0.4,0.4-0.8,0.8-1.2s0.7-0.6,1.1-0.8c0.4-0.2,0.9-0.3,1.5-0.3s1,0.1,1.5,0.3
        c0.4,0.2,0.8,0.4,1.1,0.8s0.6,0.7,0.8,1.2c0.2,0.4,0.3,0.9,0.3,1.5c0,0.5-0.1,1-0.3,1.5c-0.2,0.4-0.4,0.8-0.8,1.2
        c-0.3,0.3-0.7,0.6-1.1,0.8C103.2,51.4,102.7,51.5,102.2,51.5z M102.2,50.7c0.4,0,0.8-0.1,1.1-0.2c0.3-0.2,0.6-0.4,0.9-0.6
        c0.2-0.3,0.4-0.6,0.6-0.9s0.2-0.7,0.2-1.1c0-0.4-0.1-0.8-0.2-1.1c-0.1-0.4-0.3-0.7-0.6-0.9c-0.2-0.3-0.5-0.5-0.9-0.6
        c-0.3-0.1-0.7-0.2-1.1-0.2s-0.8,0.1-1.1,0.2c-0.3,0.2-0.6,0.4-0.9,0.6c-0.2,0.3-0.4,0.6-0.6,0.9c-0.1,0.4-0.2,0.7-0.2,1.1
        c0,0.4,0.1,0.8,0.2,1.1c0.1,0.4,0.3,0.7,0.6,0.9c0.2,0.3,0.5,0.5,0.9,0.6C101.4,50.6,101.8,50.7,102.2,50.7z"/>
    <path class="st3" d="M107.5,44.3h1.2l2.4,5.4h0l2.4-5.4h1.2v6.9h-0.8v-5.8h0l-2.5,5.8h-0.5l-2.5-5.8h0v5.8h-0.8V44.3z"/>
    <path class="st3" d="M116.8,44.3h4.4v0.8h-3.5v2.2h3.3V48h-3.3v2.5h3.7v0.8h-4.5V44.3z"/>
    <path class="st3" d="M130.3,45.1H128v6.2h-0.8v-6.2h-2.3v-0.8h5.4V45.1z"/>
    <path class="st3" d="M134.9,51.5c-0.5,0-1-0.1-1.5-0.3c-0.4-0.2-0.8-0.4-1.1-0.8c-0.3-0.3-0.6-0.7-0.8-1.2
        c-0.2-0.4-0.3-0.9-0.3-1.5c0-0.5,0.1-1,0.3-1.5c0.2-0.4,0.4-0.8,0.8-1.2s0.7-0.6,1.1-0.8c0.4-0.2,0.9-0.3,1.5-0.3s1,0.1,1.5,0.3
        c0.4,0.2,0.8,0.4,1.1,0.8s0.6,0.7,0.8,1.2c0.2,0.4,0.3,0.9,0.3,1.5c0,0.5-0.1,1-0.3,1.5c-0.2,0.4-0.4,0.8-0.8,1.2
        c-0.3,0.3-0.7,0.6-1.1,0.8C135.9,51.4,135.4,51.5,134.9,51.5z M134.9,50.7c0.4,0,0.8-0.1,1.1-0.2c0.3-0.2,0.6-0.4,0.9-0.6
        c0.2-0.3,0.4-0.6,0.6-0.9s0.2-0.7,0.2-1.1c0-0.4-0.1-0.8-0.2-1.1c-0.1-0.4-0.3-0.7-0.6-0.9c-0.2-0.3-0.5-0.5-0.9-0.6
        c-0.3-0.1-0.7-0.2-1.1-0.2c-0.4,0-0.8,0.1-1.1,0.2c-0.3,0.2-0.6,0.4-0.9,0.6c-0.2,0.3-0.4,0.6-0.6,0.9c-0.1,0.4-0.2,0.7-0.2,1.1
        c0,0.4,0.1,0.8,0.2,1.1c0.1,0.4,0.3,0.7,0.6,0.9c0.2,0.3,0.5,0.5,0.9,0.6C134.1,50.6,134.5,50.7,134.9,50.7z"/>
    <path class="st3" d="M147.5,45.1h-2.3v6.2h-0.8v-6.2h-2.3v-0.8h5.4V45.1z"/>
    <path class="st3" d="M148.8,44.3h0.8v2.9h3.7v-2.9h0.8v6.9h-0.8V48h-3.7v3.2h-0.8V44.3z"/>
    <path class="st3" d="M156.3,44.3h4.4v0.8h-3.5v2.2h3.3V48h-3.3v2.5h3.7v0.8h-4.5V44.3z"/>
    <path class="st3" d="M165.1,44.3h1.2l2.4,5.4h0l2.4-5.4h1.2v6.9h-0.8v-5.8h0l-2.5,5.8h-0.5l-2.5-5.8h0v5.8h-0.8V44.3z"/>
    <path class="st3" d="M174.4,44.3h0.8v6.9h-0.8V44.3z"/>
    <path class="st3" d="M182.2,45.8c-0.2-0.3-0.5-0.5-0.8-0.6c-0.3-0.1-0.6-0.2-1-0.2c-0.4,0-0.7,0.1-1.1,0.2
        c-0.3,0.2-0.6,0.4-0.8,0.6c-0.2,0.3-0.4,0.6-0.5,0.9c-0.1,0.3-0.2,0.7-0.2,1.1c0,0.4,0.1,0.8,0.2,1.1c0.1,0.4,0.3,0.7,0.5,0.9
        c0.2,0.3,0.5,0.5,0.8,0.6c0.3,0.1,0.7,0.2,1.1,0.2c0.4,0,0.8-0.1,1.1-0.2c0.3-0.2,0.6-0.4,0.9-0.7l0.6,0.5
        c-0.3,0.4-0.7,0.7-1.1,0.9c-0.4,0.2-0.9,0.3-1.5,0.3c-0.5,0-1-0.1-1.4-0.3s-0.8-0.4-1.1-0.8c-0.3-0.3-0.6-0.7-0.7-1.2
        c-0.2-0.4-0.3-0.9-0.3-1.5c0-0.5,0.1-1,0.3-1.4c0.2-0.4,0.4-0.8,0.7-1.2c0.3-0.3,0.7-0.6,1.1-0.8c0.4-0.2,0.9-0.3,1.4-0.3
        c0.5,0,0.9,0.1,1.4,0.3c0.4,0.2,0.8,0.4,1.1,0.8L182.2,45.8z"/>
    <path class="st3" d="M184.7,44.3h1.8c0.3,0,0.7,0,1,0.1c0.3,0,0.6,0.1,0.9,0.3c0.3,0.1,0.5,0.3,0.6,0.6c0.2,0.3,0.2,0.6,0.2,1
        c0,0.5-0.2,0.9-0.5,1.2s-0.7,0.5-1.3,0.6l2,3.2h-1l-1.9-3.1h-1.1v3.1h-0.8V44.3z M185.5,47.4h0.7c0.2,0,0.5,0,0.7,0
        c0.2,0,0.5-0.1,0.7-0.1c0.2-0.1,0.4-0.2,0.5-0.3c0.1-0.2,0.2-0.4,0.2-0.7c0-0.2,0-0.4-0.1-0.6c-0.1-0.2-0.2-0.3-0.4-0.3
        c-0.2-0.1-0.3-0.1-0.5-0.2c-0.2,0-0.4,0-0.6,0h-1.2V47.4z"/>
    <path class="st3" d="M194.3,51.5c-0.5,0-1-0.1-1.5-0.3c-0.4-0.2-0.8-0.4-1.1-0.8c-0.3-0.3-0.6-0.7-0.8-1.2
        c-0.2-0.4-0.3-0.9-0.3-1.5c0-0.5,0.1-1,0.3-1.5c0.2-0.4,0.4-0.8,0.8-1.2s0.7-0.6,1.1-0.8c0.4-0.2,0.9-0.3,1.5-0.3
        c0.5,0,1,0.1,1.5,0.3c0.4,0.2,0.8,0.4,1.1,0.8s0.6,0.7,0.8,1.2c0.2,0.4,0.3,0.9,0.3,1.5c0,0.5-0.1,1-0.3,1.5
        c-0.2,0.4-0.4,0.8-0.8,1.2c-0.3,0.3-0.7,0.6-1.1,0.8C195.3,51.4,194.8,51.5,194.3,51.5z M194.3,50.7c0.4,0,0.8-0.1,1.1-0.2
        c0.3-0.2,0.6-0.4,0.9-0.6c0.2-0.3,0.4-0.6,0.6-0.9c0.1-0.4,0.2-0.7,0.2-1.1c0-0.4-0.1-0.8-0.2-1.1c-0.1-0.4-0.3-0.7-0.6-0.9
        c-0.2-0.3-0.5-0.5-0.9-0.6c-0.3-0.1-0.7-0.2-1.1-0.2c-0.4,0-0.8,0.1-1.1,0.2c-0.3,0.2-0.6,0.4-0.9,0.6c-0.2,0.3-0.4,0.6-0.6,0.9
        c-0.1,0.4-0.2,0.7-0.2,1.1c0,0.4,0.1,0.8,0.2,1.1c0.1,0.4,0.3,0.7,0.6,0.9c0.2,0.3,0.5,0.5,0.9,0.6
        C193.5,50.6,193.9,50.7,194.3,50.7z"/>
    <path class="st3" d="M199.6,44.3h1l4,5.8h0v-5.8h0.8v6.9h-1l-4-5.8h0v5.8h-0.8V44.3z"/>
    <path class="st3" d="M209.9,44.3h0.8l3,6.9h-1l-0.7-1.7h-3.5l-0.7,1.7h-0.9L209.9,44.3z M210.3,45.4L210.3,45.4l-1.5,3.4h2.8
        L210.3,45.4z"/>
    <path class="st3" d="M220.2,48.6c0,0.4,0,0.7-0.1,1.1c-0.1,0.3-0.2,0.6-0.5,0.9c-0.2,0.3-0.5,0.5-0.8,0.6c-0.3,0.2-0.7,0.2-1.2,0.2
        c-0.5,0-0.9-0.1-1.2-0.2c-0.3-0.2-0.6-0.4-0.8-0.6c-0.2-0.3-0.4-0.6-0.5-0.9c-0.1-0.3-0.1-0.7-0.1-1.1v-4.3h0.8v4.2
        c0,0.3,0,0.6,0.1,0.8c0.1,0.3,0.2,0.5,0.3,0.7c0.1,0.2,0.3,0.4,0.5,0.5c0.2,0.1,0.5,0.2,0.9,0.2s0.6-0.1,0.9-0.2
        c0.2-0.1,0.4-0.3,0.5-0.5c0.1-0.2,0.2-0.4,0.3-0.7c0.1-0.3,0.1-0.5,0.1-0.8v-4.2h0.8V48.6z"/>
    <path class="st3" d="M226.9,45.1h-2.3v6.2h-0.8v-6.2h-2.3v-0.8h5.4V45.1z"/>
    <path class="st3" d="M227.6,46c0-0.3,0.1-0.6,0.2-0.8c0.1-0.3,0.3-0.5,0.5-0.7c0.2-0.2,0.4-0.3,0.7-0.4c0.3-0.1,0.5-0.2,0.8-0.2
        c0.3,0,0.6,0.1,0.8,0.2c0.3,0.1,0.5,0.3,0.7,0.4c0.2,0.2,0.3,0.4,0.5,0.7c0.1,0.3,0.2,0.5,0.2,0.8c0,0.3-0.1,0.6-0.2,0.8
        c-0.1,0.3-0.3,0.5-0.5,0.7c-0.2,0.2-0.4,0.3-0.7,0.4c-0.3,0.1-0.5,0.2-0.8,0.2c-0.3,0-0.6-0.1-0.8-0.2c-0.3-0.1-0.5-0.3-0.7-0.4
        c-0.2-0.2-0.3-0.4-0.5-0.7C227.6,46.6,227.6,46.3,227.6,46z M228,46c0,0.3,0,0.5,0.1,0.7c0.1,0.2,0.2,0.4,0.4,0.6
        c0.2,0.2,0.3,0.3,0.6,0.4c0.2,0.1,0.4,0.1,0.7,0.1c0.2,0,0.5,0,0.7-0.1c0.2-0.1,0.4-0.2,0.6-0.4c0.2-0.2,0.3-0.4,0.4-0.6
        c0.1-0.2,0.1-0.5,0.1-0.7c0-0.3,0-0.5-0.1-0.7c-0.1-0.2-0.2-0.4-0.4-0.6c-0.2-0.2-0.3-0.3-0.6-0.4c-0.2-0.1-0.4-0.1-0.7-0.1
        c-0.2,0-0.5,0-0.7,0.1c-0.2,0.1-0.4,0.2-0.6,0.4c-0.2,0.2-0.3,0.4-0.4,0.6C228,45.5,228,45.7,228,46z M228.9,44.7h0.9
        c0.6,0,0.9,0.2,0.9,0.7c0,0.2-0.1,0.4-0.2,0.5c-0.1,0.1-0.3,0.2-0.5,0.2l0.7,1.1h-0.4l-0.7-1.1h-0.4v1.1h-0.4V44.7z M229.3,45.8
        h0.4c0.1,0,0.2,0,0.2,0c0.1,0,0.2,0,0.2,0c0.1,0,0.1-0.1,0.1-0.1c0-0.1,0.1-0.1,0.1-0.2c0-0.1,0-0.2-0.1-0.2c0-0.1-0.1-0.1-0.1-0.1
        c-0.1,0-0.1,0-0.2-0.1c-0.1,0-0.1,0-0.2,0h-0.5V45.8z"/>
    <path class="st3" d="M235.8,44.3h4.3v0.8h-3.5v2.3h3.2v0.8h-3.2v3.1h-0.8V44.3z"/>
    <path class="st3" d="M241.7,44.3h1.8c0.3,0,0.7,0,1,0.1c0.3,0,0.6,0.1,0.9,0.3c0.3,0.1,0.5,0.3,0.6,0.6c0.2,0.3,0.2,0.6,0.2,1
        c0,0.5-0.2,0.9-0.5,1.2s-0.7,0.5-1.3,0.6l2,3.2h-1l-1.9-3.1h-1.1v3.1h-0.8V44.3z M242.5,47.4h0.7c0.2,0,0.5,0,0.7,0
        c0.2,0,0.5-0.1,0.7-0.1c0.2-0.1,0.4-0.2,0.5-0.3c0.1-0.2,0.2-0.4,0.2-0.7c0-0.2,0-0.4-0.1-0.6c-0.1-0.2-0.2-0.3-0.4-0.3
        c-0.2-0.1-0.3-0.1-0.5-0.2c-0.2,0-0.4,0-0.6,0h-1.2V47.4z"/>
    <path class="st3" d="M250.3,44.3h0.8l3,6.9h-1l-0.7-1.7h-3.5l-0.7,1.7h-0.9L250.3,44.3z M250.7,45.4L250.7,45.4l-1.5,3.4h2.8
        L250.7,45.4z"/>
    <path class="st3" d="M255.4,44.3h1.2l2.4,5.4h0l2.4-5.4h1.2v6.9h-0.8v-5.8h0l-2.5,5.8h-0.5l-2.5-5.8h0v5.8h-0.8V44.3z"/>
    <path class="st3" d="M264.7,44.3h4.4v0.8h-3.5v2.2h3.3V48h-3.3v2.5h3.7v0.8h-4.5V44.3z"/>
    <path class="st3" d="M270.1,44.3h0.9l1.6,5.8h0l1.7-5.8h0.9l1.7,5.8h0l1.6-5.8h0.9l-2,6.9h-0.9l-1.7-5.9h0l-1.7,5.9h-0.9
        L270.1,44.3z"/>
    <path class="st3" d="M284,51.5c-0.5,0-1-0.1-1.5-0.3c-0.4-0.2-0.8-0.4-1.1-0.8c-0.3-0.3-0.6-0.7-0.8-1.2c-0.2-0.4-0.3-0.9-0.3-1.5
        c0-0.5,0.1-1,0.3-1.5s0.4-0.8,0.8-1.2s0.7-0.6,1.1-0.8c0.4-0.2,0.9-0.3,1.5-0.3c0.5,0,1,0.1,1.5,0.3c0.4,0.2,0.8,0.4,1.1,0.8
        c0.3,0.3,0.6,0.7,0.8,1.2c0.2,0.4,0.3,0.9,0.3,1.5c0,0.5-0.1,1-0.3,1.5c-0.2,0.4-0.4,0.8-0.8,1.2c-0.3,0.3-0.7,0.6-1.1,0.8
        C285,51.4,284.5,51.5,284,51.5z M284,50.7c0.4,0,0.8-0.1,1.1-0.2c0.3-0.2,0.6-0.4,0.9-0.6c0.2-0.3,0.4-0.6,0.6-0.9
        c0.1-0.4,0.2-0.7,0.2-1.1c0-0.4-0.1-0.8-0.2-1.1c-0.1-0.4-0.3-0.7-0.6-0.9c-0.2-0.3-0.5-0.5-0.9-0.6c-0.3-0.1-0.7-0.2-1.1-0.2
        c-0.4,0-0.8,0.1-1.1,0.2c-0.3,0.2-0.6,0.4-0.9,0.6c-0.2,0.3-0.4,0.6-0.6,0.9c-0.1,0.4-0.2,0.7-0.2,1.1c0,0.4,0.1,0.8,0.2,1.1
        c0.1,0.4,0.3,0.7,0.6,0.9c0.2,0.3,0.5,0.5,0.9,0.6C283.2,50.6,283.6,50.7,284,50.7z"/>
    <path class="st3" d="M289.3,44.3h1.8c0.3,0,0.7,0,1,0.1c0.3,0,0.6,0.1,0.9,0.3c0.3,0.1,0.5,0.3,0.6,0.6c0.2,0.3,0.2,0.6,0.2,1
        c0,0.5-0.2,0.9-0.5,1.2s-0.7,0.5-1.3,0.6l2,3.2h-1l-1.9-3.1h-1.1v3.1h-0.8V44.3z M290.1,47.4h0.7c0.2,0,0.5,0,0.7,0
        c0.2,0,0.5-0.1,0.7-0.1c0.2-0.1,0.4-0.2,0.5-0.3c0.1-0.2,0.2-0.4,0.2-0.7c0-0.2,0-0.4-0.1-0.6c-0.1-0.2-0.2-0.3-0.4-0.3
        c-0.2-0.1-0.3-0.1-0.5-0.2c-0.2,0-0.4,0-0.6,0h-1.2V47.4z"/>
    <path class="st3" d="M295.7,44.3h0.8v3h0.1l3.2-3h1.2l-3.4,3.2l3.6,3.8H300l-3.3-3.5h-0.1v3.5h-0.8V44.3z"/>
</g>
</svg>
