<?xml version="1.0" encoding="UTF-8"?>
<svg xmlns="http://www.w3.org/2000/svg" viewBox="0 0 500 164">
  <defs>
    <linearGradient id="a" x1="34.1" x2="138.5" y1="415.1" y2="310.7" gradientTransform="translate(0 -250)" gradientUnits="userSpaceOnUse">
      <stop offset="0" stop-color="#38b6ff"></stop>
      <stop offset="1" stop-color="#025984"></stop>
    </linearGradient>
    <linearGradient href="#a" id="c" x1="25.9" x2="71.4" y1="312.4" y2="391.1"></linearGradient>
    <linearGradient id="b" x1="1357.2" x2="1296.1" y1="569.3" y2="679" gradientTransform="rotate(-180 730.1 351)" gradientUnits="userSpaceOnUse">
      <stop offset="0" stop-color="#438f4b"></stop>
      <stop offset="1" stop-color="#7ed957"></stop>
    </linearGradient>
    <linearGradient href="#b" id="d" x1="1322.1" x2="1257.1" y1="639.3" y2="572"></linearGradient>
  </defs>
  <path fill="url(#a)" d="m175 100.1-5.2-1.2a53.8 53.8 0 0 0-28 3.9c-2.1.7-4.5 1.7-7.8 3.3-3.4 1.6-11 5.8-12.3 6.7l-11.5 7-14.7 9.3a475 475 0 0 1-9.8 5.4c-4 2.1-8.1 4-12 5.3a56.6 56.6 0 0 1-26.3 4 54.4 54.4 0 0 1-46.9-28 55.2 55.2 0 0 0 56 47.5h.5c6.7.2 15.4-2.4 18.3-3.3 3-.9 7.8-3 11.7-4.9 3.9-2 13.8-8.1 17.8-11.3l9.5-7.3 14.4-12c3.4-2.8 9.3-7.3 12.7-9.8a79 79 0 0 1 14.5-8.5l5.2-2c2.2-.8 5.1-1.4 6.4-1.6 1.4-.3 2.2-.3 4.5-.6s8 .1 8 .1-3.5-1.6-5-2Z"></path>
  <path fill="url(#c)" d="M47.3 145c11.6 0 20.2-1.8 26.4-5.2-5.3 2-10.3 3.2-13.9 3.3h-1l-2.1.1a37.7 37.7 0 0 1-37.3-38 41 41 0 0 1 39.5-40.4h2c6.1-.1 13 1 18.8 3.7a37 37 0 0 1 8.9 4.8 45.7 45.7 0 0 0-33.4-17.9H54l-2.6-.1A52.6 52.6 0 0 0 .5 115.8 55.4 55.4 0 0 0 47.3 145Z"></path>
  <path fill="url(#b)" d="M40.3 118.4c1.6.4 2.3.6 5.3 1.1a57.8 57.8 0 0 0 29-3.8c2.1-.7 4.5-1.8 8-3.3a208.8 208.8 0 0 0 24.7-13.7l15.3-9.3 10.2-5.4c4.2-2.1 8.5-4 12.5-5.3 6.5-3.4 12.5-4 24.5-4 19.6.2 42.8 11.5 51.3 28A56.6 56.6 0 0 0 163 55.2h-.5c-7-.2-15.9 2.4-19 3.3A102.6 102.6 0 0 0 113 74.6l-9.8 7.4c-3.2 2.4-11.4 9.2-15 12-3.5 2.8-9.5 7.3-13.1 9.8s-6.2 4-8.3 5.1l-6.8 3.3c-1.6.8-3.2 1.3-5.3 2-2.2.8-5.4 1.4-6.7 1.7-1.4.3-2.3.3-4.7.6-2.4.3-8.2-.2-8.2-.2s3.7 1.7 5.3 2Z"></path>
  <path fill="url(#d)" d="M172.6 73.5c-12 0-20.9 1.8-27.4 5.2 5.6-2 10.7-3.2 14.4-3.4H163a38.5 38.5 0 0 1 38.6 38 41.8 41.8 0 0 1-41 40.4h-2c-6.3.1-13.4-1-19.5-3.7a39.4 39.4 0 0 1-9.2-4.8 47.4 47.4 0 0 0 34.6 17.9h1.1l2.7.1a53.5 53.5 0 0 0 52.8-60.5c-8.5-16.5-29-29-48.5-29.2Z"></path>
  <path fill="#38b6ff" d="M50.7.7c-12.4 0-22.3 10-22.3 22.4 0 12.4 9.9 22.3 22.3 22.3s22.4-9.9 22.4-22.3S63 .7 50.7.7"></path>
  <path fill="#7ed957" d="M171.4.7C159 .7 149 10.7 149 23.1c0 12.4 10 22.3 22.4 22.3s22.3-9.9 22.3-22.3S183.8.7 171.4.7"></path>
  <path fill="#2c3e50" d="M250.3 93c-4.6-4.4-6.8-10.8-6.8-19.3V31.8h8.1v39.8c0 7 1.5 12 4.4 15.4 3 3.3 7.6 5 13.8 5s10.8-1.7 13.7-5 4.5-8.5 4.5-15.4V31.8h7.9v41.9c0 8.5-2.3 15-6.8 19.3-4.5 4.4-11 6.5-19.4 6.5-8.4 0-14.8-2.1-19.4-6.5Zm103.2 5.6h8.1V66.2c0-4.4-.9-8-2.6-10.9-1.8-2.8-4.2-5-7.2-6.4a26 26 0 0 0-17.3-1 15.5 15.5 0 0 0-9.6 7.8l-.4-7.8h-7.1v50.6h8V71.6c0-4.3.8-7.7 2.3-10.3 1.6-2.5 3.6-4.3 6-5.5 2.5-1.2 5-1.8 7.3-1.8 3.5 0 6.5 1.1 8.9 3.3 2.4 2.3 3.6 6.1 3.6 11.7v29.5Zm29.4-.1h8.2V47.9h-8.2v50.6Zm4.2-72.6a6 6 0 0 0-4.4 1.7c-1.1 1.2-1.7 2.6-1.7 4.5s.6 3.3 1.7 4.4c1.1 1.1 2.6 1.7 4.4 1.7s3.3-.5 4.4-1.7c1.1-1.2 1.7-2.6 1.7-4.4s-.6-3.4-1.7-4.5a6.2 6.2 0 0 0-4.4-1.7ZM419 94c1.3 2 3.1 3.4 5.3 4.3a21.6 21.6 0 0 0 14.5.2c2-.8 4-2 5.5-3.3l-2.9-7c-1.2 1.3-2.4 2.2-3.8 2.8s-3.2 1-5 1c-2.3 0-4.1-.6-5.5-1.8-1.4-1.3-2-3.2-2-5.6V55h18.4v-7H425V33.5l-8.1 2.3v12.1h-10.1v7h10v31c.2 3.3.9 6 2.2 8Zm72.5-46-11.8 32-3.8 10.1-3-9-12.7-33H451l16 38.4 5.1 12-2.6 6.7c-1.4 3.3-2.7 5.4-4.3 6.6a8.6 8.6 0 0 1-5 1.5 13.1 13.1 0 0 1-8.8-3.5l-2.2 7.1a17.8 17.8 0 0 0 11.4 3.5c2.4 0 4.7-.4 6.5-1.2 1.8-1 3.5-2.2 5-4.2s3-4.6 4.2-7.9L500 48h-8.5Zm-244.7 85.8h1.7v-11h11.2V121h-11.2v-9h14.2v-1.7h-16v23.4Zm33.8-13.8c.8 1.3 1.1 3 1.1 5s-.3 3.5-1 4.9a8.3 8.3 0 0 1-3 3.2 8 8 0 0 1-4.5 1 8 8 0 0 1-7.3-4.2c-.8-1.4-1.1-3-1.1-5s.3-3.6 1-5a8 8 0 0 1 7.4-4.3 8 8 0 0 1 7.4 4.4Zm-.6 4.9c0-1.6-.3-3-.9-4.2-.6-1.1-1.4-2-2.3-2.6-1-.5-2.3-1-3.6-1a6.3 6.3 0 0 0-5.9 3.6c-.5 1.2-.8 2.6-.8 4.2s.3 2.9.9 4c.6 1.2 1.3 2 2.3 2.7a7 7 0 0 0 7 0c1-.6 1.8-1.5 2.4-2.6a9 9 0 0 0 .9-4.1Zm20.6 1.4a6 6 0 0 1-1.7 4.4c-.5.6-1.2 1-2 1.4-.8.3-1.6.5-2.5.5-1.7 0-2.8-.4-3.8-1.2-1-.9-1.4-2.2-1.4-4V116h-1.7v11.7c0 1.4.2 2.7.8 3.6.5.9 1.3 1.7 2.3 2a8.3 8.3 0 0 0 7.5-.5c1.2-.7 2-1.7 2.6-3v3.8h1.6v-17.7h-1.7v10.3Zm20.7-9.8c-1-.5-2.1-.8-3.5-.8-1 0-2 .2-3 .5a6.3 6.3 0 0 0-3.6 3.4l-.2-3.6h-1.5v17.7h1.7v-10c0-1.3.4-2.5 1-3.5a6.6 6.6 0 0 1 5.5-3 5 5 0 0 1 3.7 1.5c1 1 1.4 2.3 1.4 4.3v10.8h1.8v-11.4a7 7 0 0 0-.8-3.7c-.6-1-1.5-1.7-2.5-2.2Zm23.8-8.5h1.7v25.8h-1.5v-4l-1 2c-.7.8-1.5 1.4-2.5 1.8-1.2.2-2.3.5-3.4.5-1.5 0-3-.3-4-1.1a7.6 7.6 0 0 1-3-3.2c-.6-1.4-1-3-1-5s.4-3.5 1.2-5a8.2 8.2 0 0 1 3-3.1 7.5 7.5 0 0 1 4-1.1 6.4 6.4 0 0 1 6.5 4.3v-12Zm-.2 16.9c0-1.6-.3-3-.9-4-.5-1.2-1.2-2.1-2.1-2.7-1-.6-2-1-3.3-1a6 6 0 0 0-4.8 2.2c-1.2 1.3-1.8 3.2-1.8 5.6s.6 4.2 1.8 5.6c1.2 1.2 2.8 2 4.8 2a5.5 5.5 0 0 0 5.4-3.6c.5-1.2.9-2.6.9-4.1Zm23.4 7.4c.6 0 1 0 1.3-.3v1.5c-.5.2-1 .3-1.7.3-.5 0-1 0-1.5-.3s-.8-.6-1.1-1.2c-.3-.4-.4-.9-.4-1.5-.2.4-.5.8-1 1.2-.7.6-1.5 1.1-2.5 1.5a8.8 8.8 0 0 1-5.9 0c-.8-.4-1.5-.9-2-1.5s-.8-1.5-.8-2.6c0-1.4.4-2.4 1.4-3.2.9-.8 2-1.3 3.7-1.7l7-1.3v-1.2c0-1.4-.4-2.7-1.3-3.5-.8-.9-2-1.3-3.5-1.3-1.4 0-2.5.3-3.5.9a5 5 0 0 0-2.1 2.8l-1.4-.9a6.2 6.2 0 0 1 2.6-3.2 9.3 9.3 0 0 1 8-.5 5 5 0 0 1 2.2 2c.5.9.8 2 .8 3.3v8.9c0 1.2.6 1.8 1.7 1.8Zm-3.4-7.6-6.1 1.1c-1.5.3-2.5.7-3.2 1.3-.6.5-1 1.2-1 2.2 0 1 .4 1.8 1.2 2.3a5 5 0 0 0 3 .9 8 8 0 0 0 2.2-.3l2-.9c.6-.4 1-1 1.4-1.6a5 5 0 0 0 .5-2.2v-2.8Zm16.4 7.5c-.5.2-1.1.3-1.8.3-1 0-1.7-.3-2.3-.9-.5-.6-.8-1.4-.8-2.5v-11.5h6.5v-1.7h-6.5v-5l-1.8.6v4.4H371v1.5h3.5v11.8c0 1 .2 2 .6 2.6s.9 1.3 1.7 1.6c.6.3 1.5.5 2.4.5.8 0 1.6-.2 2.3-.4.7-.2 1.3-.6 1.7-1l-.6-1.3a4 4 0 0 1-1.4 1Zm6.5 1.5h1.7v-17.7h-1.7v17.7Zm.8-24.1c-.5 0-.8.1-1.1.4a2 2 0 0 0-.4 1.1c0 .5.1.8.4 1.1.3.2.7.4 1.1.4s.9-.2 1.1-.4c.2-.3.4-.7.4-1.1 0-.5-.1-.8-.4-1.1a2 2 0 0 0-1-.4Zm22.7 10.4c.8 1.3 1.1 3 1.1 5s-.3 3.5-1.1 4.9a8.3 8.3 0 0 1-3 3.2 8 8 0 0 1-4.4 1 8 8 0 0 1-7.3-4.2c-.8-1.4-1.2-3-1.2-5s.4-3.6 1.2-5a8 8 0 0 1 7.4-4.3 8 8 0 0 1 7.3 4.4Zm-.7 4.9c0-1.6-.2-3-.8-4.2-.6-1.1-1.4-2-2.4-2.6-1-.5-2.2-1-3.5-1a6.3 6.3 0 0 0-5.9 3.6c-.5 1.2-.8 2.6-.8 4.2s.3 2.9.9 4 1.3 2 2.3 2.7a7 7 0 0 0 7 0c1-.6 1.8-1.5 2.4-2.6s.8-2.6.8-4.1Zm19.6-8.4c-1-.5-2.2-.8-3.5-.8-1 0-2.1.2-3 .5s-1.7.9-2.4 1.5c-.5.6-1 1.2-1.2 1.9l-.2-3.6h-1.6V133.6h1.8v-10c0-1.3.3-2.5.9-3.5a6.6 6.6 0 0 1 5.5-3 5 5 0 0 1 3.8 1.5c.9 1 1.4 2.3 1.4 4.3v10.8h1.8v-11.4a7 7 0 0 0-.9-3.7c-.6-1-1.4-1.7-2.4-2.2Zm7.7 11.8h1.1v5.5h.7v-5.5h1.2v-.6h-3v.6Zm7-.6-.7 2.8-.5 2.1-.5-2.1-.7-2.8h-.8l-.3 6.1h.6l.1-2.6v-2.4h.1l.5 2.2.7 2.8h.5l.7-2.9.5-2.1.1 2.4.2 2.6h.6l-.3-6.1h-.8Z"></path>
</svg>
