<svg xmlns="http://www.w3.org/2000/svg" xmlns:xlink="http://www.w3.org/1999/xlink" width="600" zoomAndPan="magnify" viewBox="0 0 450 449.999984" height="600" preserveAspectRatio="xMidYMid meet" version="1.0"><defs><clipPath id="id1"><path d="M 10.289062 10.289062 L 440.039062 10.289062 L 440.039062 440.039062 L 10.289062 440.039062 Z M 10.289062 10.289062 " clip-rule="nonzero"/></clipPath><clipPath id="id2"><path d="M 65.992188 100 L 383.992188 100 L 383.992188 349.730469 L 65.992188 349.730469 Z M 65.992188 100 " clip-rule="nonzero"/></clipPath></defs><g clip-path="url(#id1)"><path fill="#a5a4a8" d="M 225.164062 10.289062 C 106.488281 10.289062 10.289062 106.488281 10.289062 225.164062 C 10.289062 343.835938 106.488281 440.039062 225.164062 440.039062 C 343.835938 440.039062 440.039062 343.835938 440.039062 225.164062 C 440.039062 106.488281 343.835938 10.289062 225.164062 10.289062 " fill-opacity="1" fill-rule="nonzero"/></g><g clip-path="url(#id2)"><path fill="#ffffff" d="M 339.246094 122.753906 L 110.742188 122.753906 L 218.066406 205.222656 C 222.148438 208.359375 227.835938 208.359375 231.917969 205.222656 Z M 88.707031 134.449219 L 88.707031 326.957031 L 361.277344 326.957031 L 361.277344 134.445312 L 245.765625 223.207031 C 233.519531 232.617188 216.464844 232.617188 204.21875 223.207031 Z M 65.992188 122.753906 C 65.992188 110.222656 76.164062 100.0625 88.707031 100.0625 L 361.277344 100.0625 C 373.824219 100.0625 383.992188 110.222656 383.992188 122.753906 L 383.992188 326.957031 C 383.992188 339.488281 373.824219 349.648438 361.277344 349.648438 L 88.707031 349.648438 C 76.164062 349.648438 65.992188 339.488281 65.992188 326.957031 Z M 65.992188 122.753906 " fill-opacity="1" fill-rule="evenodd"/></g></svg>