<?xml version="1.0" encoding="utf-8"?>
<!-- Generator: Adobe Illustrator 25.2.1, SVG Export Plug-In . SVG Version: 6.00 Build 0)  -->
<svg version="1.1" id="Ebene_1" xmlns="http://www.w3.org/2000/svg" xmlns:xlink="http://www.w3.org/1999/xlink" x="0px" y="0px"
	 viewBox="0 0 86.5 86.5" style="enable-background:new 0 0 86.5 86.5;" xml:space="preserve">
<style type="text/css">
	.st0{fill:#FEB571;}
</style>
<g>
	<path class="st0" d="M71.2,17.9c0.2,0.1,0.4,0.2,0.7,0.2c0.2,0,0.5-0.1,0.7-0.2c0.2-0.1,0.4-0.3,0.5-0.5c0.1-0.2,0.2-0.4,0.2-0.7
		c0-0.2-0.1-0.5-0.2-0.7c-0.1-0.2-0.3-0.4-0.5-0.5c-0.2-0.1-0.4-0.2-0.7-0.2c-0.2,0-0.5,0.1-0.7,0.2c-0.2,0.1-0.4,0.3-0.5,0.5
		c-0.1,0.2-0.2,0.4-0.2,0.7c0,0.3,0.1,0.5,0.2,0.7C70.8,17.6,71,17.8,71.2,17.9z M71.2,15.7h0.6c0.2,0,0.4,0,0.5,0.1
		c0.1,0.1,0.2,0.2,0.2,0.4c0,0.2-0.1,0.3-0.3,0.4c0.1,0,0.2,0.1,0.2,0.2c0,0.1,0.1,0.2,0.1,0.3c0,0.1,0,0.2,0,0.3c0,0.1,0,0.1,0,0.1
		v0h-0.4c0-0.1,0-0.2,0-0.4c0-0.1,0-0.2-0.1-0.2c-0.1,0-0.1-0.1-0.3-0.1h-0.4v0.7h-0.3V15.7z"/>
	<path class="st0" d="M72.1,16.5c0.1,0,0.1-0.1,0.1-0.2c0-0.1,0-0.2-0.1-0.2c-0.1,0-0.2-0.1-0.3-0.1h-0.3v0.5h0.3
		C71.9,16.6,72,16.6,72.1,16.5z"/>
	<path class="st0" d="M32.9,19.6c0.2,0,0.4-0.1,0.6-0.1c0.2-0.1,0.4-0.2,0.5-0.4c0.1-0.2,0.2-0.4,0.2-0.7c0-0.3-0.1-0.5-0.2-0.7
		c-0.1-0.2-0.3-0.3-0.4-0.4c-0.2-0.1-0.4-0.1-0.6-0.2c-0.2,0-0.4,0-0.6,0h-1.5v2.4h1.4C32.5,19.7,32.7,19.7,32.9,19.6z"/>
	<polygon class="st0" points="42.9,18.2 41.5,21.6 44.2,21.6 	"/>
	<path class="st0" d="M43.2,0C19.4,0,0,19.4,0,43.2c0,23.9,19.4,43.2,43.2,43.2c23.9,0,43.2-19.4,43.2-43.2C86.5,19.4,67.1,0,43.2,0
		z M70.4,15.9c0.1-0.3,0.3-0.5,0.6-0.6c0.3-0.1,0.5-0.2,0.8-0.2s0.6,0.1,0.8,0.2c0.3,0.1,0.4,0.3,0.6,0.6s0.2,0.5,0.2,0.8
		c0,0.3-0.1,0.6-0.2,0.8s-0.3,0.5-0.6,0.6c-0.3,0.1-0.5,0.2-0.8,0.2c-0.3,0-0.6-0.1-0.8-0.2c-0.3-0.1-0.4-0.3-0.6-0.6
		c-0.1-0.3-0.2-0.5-0.2-0.8C70.2,16.4,70.3,16.1,70.4,15.9z M66.3,21.9c-0.2-0.2-0.5-0.3-0.9-0.5c-0.4-0.1-0.7-0.3-1.2-0.4
		c-0.4-0.1-0.8-0.3-1.1-0.5c-0.3-0.2-0.6-0.5-0.9-0.8c-0.2-0.3-0.3-0.8-0.3-1.3c0-0.5,0.1-1,0.3-1.4c0.2-0.4,0.5-0.8,0.9-1
		c0.4-0.3,0.8-0.5,1.2-0.6c0.5-0.1,1-0.2,1.4-0.2c0.6,0,1.1,0.1,1.7,0.2c0.5,0.2,1,0.4,1.4,0.8l-1.5,1.6c-0.2-0.2-0.4-0.4-0.7-0.5
		c-0.3-0.1-0.6-0.2-0.9-0.2c-0.2,0-0.3,0-0.5,0.1c-0.2,0-0.3,0.1-0.5,0.2c-0.2,0.1-0.3,0.2-0.4,0.3c-0.1,0.1-0.2,0.3-0.2,0.5
		c0,0.3,0.1,0.6,0.4,0.8c0.2,0.2,0.5,0.3,0.9,0.4c0.4,0.1,0.7,0.2,1.1,0.3c0.4,0.1,0.8,0.3,1.1,0.5c0.3,0.2,0.6,0.5,0.9,0.8
		c0.2,0.3,0.3,0.8,0.3,1.4c0,0.6-0.1,1.1-0.3,1.5c-0.2,0.4-0.5,0.8-0.8,1c-0.4,0.3-0.8,0.5-1.2,0.6c-0.5,0.1-1,0.2-1.5,0.2
		c-0.7,0-1.3-0.1-1.8-0.3c-0.5-0.2-1.1-0.5-1.5-0.9l1.5-1.7c0.2,0.3,0.5,0.5,0.9,0.7c0.4,0.2,0.7,0.3,1.1,0.3c0.2,0,0.4,0,0.6-0.1
		c0.2,0,0.4-0.1,0.5-0.2c0.2-0.1,0.3-0.2,0.4-0.4c0.1-0.1,0.1-0.3,0.1-0.5C66.6,22.4,66.5,22.1,66.3,21.9z M54.2,15.4h2.1v8.2h4.2v2
		h-6.3V15.4z M49.5,15.4h2.1v10.1h-2.1V15.4z M42,15.4h1.8l4.4,10.1h-2.4l-0.9-2.2h-4.1L40,25.6h-2.4L42,15.4z M28.7,15.4h3.9
		c0.5,0,1,0,1.5,0.2c0.5,0.1,0.9,0.3,1.2,0.5c0.3,0.2,0.6,0.5,0.8,0.9s0.3,0.9,0.3,1.5c0,0.7-0.2,1.3-0.6,1.8
		c-0.4,0.5-0.9,0.8-1.5,0.9l-0.2,0l2.6,4.3h-2.6l-2.1-4.1h-1.2v4.1h-2.1V15.4z M17.5,18.3c0.3-0.7,0.7-1.2,1.1-1.7
		c0.5-0.5,1.1-0.8,1.7-1.1c0.7-0.2,1.4-0.4,2.2-0.4c0.8,0,1.6,0.1,2.3,0.3c0.7,0.2,1.2,0.5,1.8,1L25,18.1c-0.3-0.3-0.6-0.5-1-0.7
		c-0.4-0.2-0.9-0.2-1.5-0.2c-0.5,0-0.9,0.1-1.3,0.2c-0.4,0.2-0.7,0.4-1,0.7c-0.3,0.3-0.5,0.7-0.7,1.1c-0.2,0.4-0.2,0.9-0.2,1.3
		c0,0.5,0.1,0.9,0.2,1.3c0.2,0.4,0.4,0.8,0.7,1.1c0.3,0.3,0.6,0.5,1,0.7c0.4,0.2,0.8,0.2,1.3,0.2c0.5,0,0.9-0.1,1.3-0.2
		c0.3-0.1,0.6-0.2,0.8-0.3l0,0l0,0l0,0v-1.7h-1.8v-2h3.9v5.3c-0.7,0.3-1.3,0.6-2,0.7c-0.7,0.2-1.5,0.2-2.2,0.2
		c-0.8,0-1.5-0.1-2.2-0.4c-0.7-0.2-1.2-0.6-1.7-1.1c-0.5-0.5-0.9-1-1.1-1.7C17.2,22,17,21.3,17,20.5C17,19.7,17.2,18.9,17.5,18.3z
		 M31.5,52c-0.6,0.3-1.5,0.6-1.8,0.8c-0.6,0.3-1.5,1-2,1.8c-0.4,0.6-0.7,1.4-0.9,1.9c-0.1,0.3-0.1,0.8-0.1,1.4
		c0,1.3,0.2,3.1,0.7,4.3c0.5,1.4,0.8,1.8,1.4,3.2c0.3,0.6,0.5,1.2,0.6,1.4c0,0.1,0,0.2,0,0.3c-0.2,0.2-0.5,0.7-1.1,1
		c-1,0.6-3.2,0.8-4.3,0.8h0c-1.1,0-3.2-0.2-4.3-0.8c-0.6-0.3-0.9-0.8-1.1-1c-0.1-0.1-0.1-0.2,0-0.3c0.1-0.3,0.4-0.8,0.6-1.4
		c0.6-1.4,0.9-1.8,1.4-3.2c0.5-1.2,0.7-3,0.7-4.3c0-0.6,0-1.1-0.1-1.4c-0.1-0.5-0.5-1.3-0.8-1.9c-0.5-0.8-1.4-1.5-2-1.8
		c-0.4-0.2-1.9-0.8-2.4-1.1c-0.7-0.4-1.6-1-2.3-1.5c-0.7-0.5-2-1.9-2.6-2.5c-1-1.3-2-2.7-2.4-4.3c-0.6-2-0.5-2.8-0.6-3.5
		c0-0.1,0.1-0.2,0.2-0.2c0.5,0,2.5-0.1,9.3-0.1c0.1,0,0.3,0.1,0.3,0.2c1.9,5.1,6.9,9.3,13.6,11.6C31.7,51.5,31.8,51.8,31.5,52z
		 M48.3,66.4c0.8,2.2,1.3,3,2.3,5.2c0.4,1,0.8,1.9,1,2.3c0.1,0.2,0.1,0.4-0.1,0.5c-0.3,0.4-0.8,1.1-1.8,1.7
		c-1.7,0.9-5.2,1.2-6.9,1.2h0c-1.7,0-5.3-0.3-6.9-1.2c-1-0.5-1.5-1.3-1.8-1.7C34,74.4,33.9,74.2,34,74c0.2-0.4,0.6-1.4,1-2.3
		c1-2.3,1.4-3,2.3-5.2c0.7-2,1.1-4.8,1.1-7c0-0.9,0-1.7-0.2-2.2c-0.2-0.9-0.8-2.1-1.4-3.1c-0.8-1.3-2.3-2.4-3.3-2.9
		c-0.7-0.4-3-1.2-3.9-1.7C28.5,48.8,27,47.8,26,47c-1.1-0.9-3.3-3-4.2-4.1c-1.6-2-3.2-4.4-3.9-7c-0.9-3.2-0.9-4.6-1-5.6
		c0-0.2,0.1-0.3,0.3-0.3c1.1,0,5.9-0.1,25.6-0.1c19.7,0,24.5,0.1,25.6,0.1c0.2,0,0.3,0.2,0.3,0.3c-0.1,1-0.1,2.4-1,5.6
		c-0.7,2.6-2.3,5-3.9,7c-0.9,1.1-3.1,3.2-4.2,4.1c-1,0.8-2.5,1.8-3.7,2.4c-0.9,0.5-3.2,1.4-3.9,1.7c-1,0.5-2.5,1.6-3.3,2.9
		c-0.6,1-1.2,2.3-1.4,3.1c-0.1,0.5-0.2,1.3-0.2,2.2C47.2,61.6,47.6,64.5,48.3,66.4z M74.7,47.6c-0.5,0.7-1.9,2-2.6,2.5
		c-0.6,0.5-1.5,1.1-2.3,1.5c-0.6,0.3-2,0.8-2.4,1.1c-0.6,0.3-1.5,1-2,1.8c-0.4,0.6-0.7,1.4-0.8,1.9c-0.1,0.3-0.1,0.8-0.1,1.4
		c0,1.3,0.2,3.1,0.7,4.3c0.5,1.4,0.8,1.8,1.4,3.2c0.3,0.6,0.5,1.2,0.6,1.4c0,0.1,0,0.2,0,0.3c-0.2,0.2-0.5,0.7-1.1,1
		c-1,0.6-3.2,0.8-4.3,0.8h0c-1.1,0-3.2-0.2-4.3-0.8c-0.6-0.3-0.9-0.8-1.1-1c-0.1-0.1-0.1-0.2,0-0.3c0.1-0.3,0.4-0.8,0.6-1.4
		c0.6-1.4,0.9-1.8,1.4-3.2c0.5-1.2,0.7-3,0.7-4.3c0-0.6,0-1.1-0.1-1.4c-0.1-0.5-0.5-1.3-0.9-1.9c-0.5-0.8-1.4-1.5-2-1.8
		c-0.3-0.2-1.1-0.5-1.8-0.8c-0.3-0.1-0.2-0.5,0-0.6C61,49.1,66,44.9,67.9,39.8c0-0.1,0.2-0.2,0.3-0.2c6.8,0,8.8,0.1,9.3,0.1
		c0.1,0,0.2,0.1,0.2,0.2c-0.1,0.6-0.1,1.5-0.6,3.5C76.7,44.9,75.7,46.4,74.7,47.6z"/>
</g>
</svg>
